<svg width="30" height="30" viewBox="0 0 30 30" fill="none" xmlns="http://www.w3.org/2000/svg">
<path d="M27.3623 11.25C26.6748 11.25 26.1123 10.6875 26.1123 10V3.75H19.8623C19.1748 3.75 18.6123 3.1875 18.6123 2.5C18.6123 1.8125 19.1748 1.25 19.8623 1.25H27.3623C28.0498 1.25 28.6123 1.8125 28.6123 2.5V10C28.6123 10.6875 28.0498 11.25 27.3623 11.25Z" fill="#102570"/>
<path d="M19.8625 11.2499C19.5375 11.2499 19.225 11.1249 18.975 10.8874C18.4875 10.3999 18.4875 9.6124 18.975 9.1249L26.475 1.6249C26.9625 1.1374 27.75 1.1374 28.2375 1.6249C28.725 2.1124 28.725 2.8999 28.2375 3.3874L20.7375 10.8874C20.5 11.1249 20.175 11.2499 19.8625 11.2499Z" fill="#102570"/>
<path d="M24.8629 28.6625C24.7504 28.6625 24.6379 28.6625 24.5129 28.65C20.4754 28.2125 16.5504 26.8125 13.1629 24.6125C10.0129 22.6125 7.2879 19.8875 5.2879 16.7375C3.0879 13.3375 1.6879 9.4 1.2629 5.3625C1.2129 4.825 1.2754 4.3125 1.4379 3.8125C1.6004 3.3125 1.8754 2.8625 2.2254 2.475C2.5754 2.0875 3.0004 1.7875 3.4754 1.575C3.9629 1.3625 4.4754 1.25 5.0004 1.25H8.7504C9.6254 1.25 10.5254 1.5625 11.2254 2.1625C11.9129 2.75 12.3629 3.575 12.4879 4.475C12.6379 5.5875 12.9129 6.6875 13.3004 7.725C13.5504 8.4 13.6129 9.125 13.4504 9.825C13.3004 10.525 12.9504 11.175 12.4504 11.675L11.5504 12.575C13.0254 14.875 14.9754 16.8375 17.2879 18.3125L18.1879 17.4125C18.7004 16.9 19.3504 16.55 20.0504 16.4125C20.7504 16.2625 21.4754 16.3125 22.1504 16.5625C23.1879 16.95 24.2879 17.225 25.3879 17.375C26.3129 17.5 27.1379 17.9625 27.7379 18.6625C28.3254 19.3625 28.6504 20.25 28.6254 21.1625V24.9C28.6254 25.425 28.5254 25.925 28.3129 26.4125C28.1004 26.8875 27.7879 27.325 27.4129 27.675C27.0254 28.025 26.5754 28.3 26.0754 28.4625C25.6754 28.6 25.2754 28.6625 24.8629 28.6625ZM8.7754 3.75H8.7629H5.0004C4.8254 3.75 4.6629 3.7875 4.5004 3.8625C4.3379 3.925 4.1879 4.025 4.0754 4.15C3.9504 4.275 3.8629 4.425 3.8129 4.6C3.7629 4.7625 3.7379 4.9375 3.7504 5.1125C4.1379 8.75 5.4004 12.3 7.3879 15.3875C9.2004 18.2375 11.6629 20.7 14.5129 22.5125C17.5879 24.5125 21.1379 25.7625 24.7629 26.1625C24.9129 26.175 25.0879 26.15 25.2504 26.1C25.4129 26.05 25.5629 25.95 25.7004 25.8375C25.8379 25.725 25.9379 25.575 26.0004 25.4125C26.0754 25.25 26.1004 25.075 26.1004 24.9V21.15C26.1004 21.1375 26.1004 21.125 26.1004 21.125C26.1129 20.8125 26.0004 20.525 25.8004 20.2875C25.6004 20.05 25.3254 19.9 25.0254 19.8625C23.7504 19.7 22.4754 19.375 21.2504 18.925C21.0254 18.8375 20.7754 18.825 20.5504 18.875C20.3129 18.925 20.1004 19.0375 19.9254 19.2125L18.3504 20.8C17.9504 21.2 17.3379 21.275 16.8504 21C13.5254 19.1125 10.7754 16.35 8.8754 13.0375C8.6129 12.5125 8.6879 11.9 9.0879 11.5L10.6754 9.9125C10.8379 9.75 10.9504 9.5375 11.0004 9.3C11.0504 9.0625 11.0379 8.825 10.9504 8.6C10.4879 7.375 10.1754 6.1 10.0004 4.8125C9.9629 4.525 9.8129 4.25 9.5879 4.05C9.3629 3.8625 9.0754 3.75 8.7754 3.75Z" fill="#102570"/>
</svg>
