<svg width="30" height="30" viewBox="0 0 30 30" fill="none" xmlns="http://www.w3.org/2000/svg">
<path fill-rule="evenodd" clip-rule="evenodd" d="M11.1452 3.03748C11.4213 3.67021 11.1322 4.40698 10.4995 4.68309C8.81522 5.41807 7.33665 6.55445 6.19303 7.99288C5.04941 9.4313 4.27557 11.128 3.93915 12.9346C3.60273 14.7411 3.71399 16.6026 4.26319 18.3563C4.81239 20.1099 5.78282 21.7024 7.08962 22.9943C8.39643 24.2863 9.99983 25.2385 11.7596 25.7676C13.5195 26.2968 15.3821 26.3867 17.1847 26.0297C18.9873 25.6727 20.6751 24.8795 22.1003 23.7196C23.5256 22.5596 24.645 21.0681 25.3607 19.3756C25.6296 18.7397 26.363 18.4423 26.9989 18.7111C27.6347 18.98 27.9322 19.7134 27.6633 20.3493C26.7886 22.4179 25.4204 24.2408 23.6784 25.6585C21.9364 27.0763 19.8736 28.0457 17.6704 28.4821C15.4672 28.9184 13.1907 28.8085 11.0398 28.1617C8.8889 27.515 6.92919 26.3512 5.33198 24.7722C3.73477 23.1931 2.5487 21.2468 1.87745 19.1034C1.2062 16.9601 1.07022 14.6849 1.4814 12.4769C1.89257 10.2688 2.83838 8.19512 4.23614 6.43705C5.6339 4.67898 7.44104 3.29007 9.49958 2.39176C10.1323 2.11565 10.8691 2.40474 11.1452 3.03748Z" fill="#102570"/>
<path fill-rule="evenodd" clip-rule="evenodd" d="M14.1161 1.61612C14.3505 1.3817 14.6685 1.25 15 1.25C16.8057 1.25 18.5937 1.60565 20.2619 2.29666C21.9301 2.98766 23.4459 4.00048 24.7227 5.27728C25.9995 6.55409 27.0123 8.06987 27.7033 9.7381C28.3943 11.4063 28.75 13.1943 28.75 15C28.75 15.6904 28.1904 16.25 27.5 16.25H15C14.3096 16.25 13.75 15.6904 13.75 15V2.5C13.75 2.16848 13.8817 1.85054 14.1161 1.61612ZM16.25 3.81966V13.75H26.1803C26.0631 12.7018 25.7989 11.6731 25.3936 10.6948C24.8283 9.3299 23.9996 8.08971 22.955 7.04505C21.9103 6.00039 20.6701 5.17172 19.3052 4.60636C18.3269 4.20113 17.2982 3.93686 16.25 3.81966Z" fill="#102570"/>
</svg>
