<svg width="30" height="30" viewBox="0 0 30 30" fill="none" xmlns="http://www.w3.org/2000/svg">
<path fill-rule="evenodd" clip-rule="evenodd" d="M1.25 3.75C1.25 3.05964 1.80964 2.5 2.5 2.5H10C11.6576 2.5 13.2473 3.15848 14.4194 4.33058C15.5915 5.50268 16.25 7.0924 16.25 8.75V26.25C16.25 26.9404 15.6904 27.5 15 27.5C14.3096 27.5 13.75 26.9404 13.75 26.25C13.75 25.587 13.4866 24.9511 13.0178 24.4822C12.5489 24.0134 11.913 23.75 11.25 23.75H2.5C1.80964 23.75 1.25 23.1904 1.25 22.5V3.75ZM13.75 21.9199V8.75C13.75 7.75544 13.3549 6.80161 12.6517 6.09835C11.9484 5.39509 10.9946 5 10 5H3.75V21.25H11.25C12.1353 21.25 12.9964 21.4848 13.75 21.9199Z" fill="#102570"/>
<path fill-rule="evenodd" clip-rule="evenodd" d="M15.5806 4.33058C16.7527 3.15848 18.3424 2.5 20 2.5H27.5C28.1904 2.5 28.75 3.05964 28.75 3.75V22.5C28.75 23.1904 28.1904 23.75 27.5 23.75H18.75C18.087 23.75 17.4511 24.0134 16.9822 24.4822C16.5134 24.9511 16.25 25.587 16.25 26.25C16.25 26.9404 15.6904 27.5 15 27.5C14.3096 27.5 13.75 26.9404 13.75 26.25V8.75C13.75 7.0924 14.4085 5.50268 15.5806 4.33058ZM16.25 21.9199C17.0036 21.4848 17.8647 21.25 18.75 21.25H26.25V5H20C19.0054 5 18.0516 5.39509 17.3483 6.09835C16.6451 6.80161 16.25 7.75544 16.25 8.75V21.9199Z" fill="#102570"/>
</svg>
