<svg width="30" height="30" viewBox="0 0 30 30" fill="none" xmlns="http://www.w3.org/2000/svg">
<path fill-rule="evenodd" clip-rule="evenodd" d="M4.84835 2.34835C5.55161 1.64509 6.50544 1.25 7.5 1.25H18.125C18.4565 1.25 18.7745 1.3817 19.0089 1.61612L25.8839 8.49112C26.1183 8.72554 26.25 9.04348 26.25 9.375V25C26.25 25.9946 25.8549 26.9484 25.1517 27.6517C24.4484 28.3549 23.4946 28.75 22.5 28.75H5C4.30964 28.75 3.75 28.1904 3.75 27.5C3.75 26.8096 4.30964 26.25 5 26.25H22.5C22.8315 26.25 23.1495 26.1183 23.3839 25.8839C23.6183 25.6495 23.75 25.3315 23.75 25V9.89277L17.6072 3.75H7.5C7.16848 3.75 6.85054 3.8817 6.61612 4.11612C6.3817 4.35054 6.25 4.66848 6.25 5V10C6.25 10.6904 5.69036 11.25 5 11.25C4.30964 11.25 3.75 10.6904 3.75 10V5C3.75 4.00544 4.14509 3.05161 4.84835 2.34835Z" fill="#102570"/>
<path fill-rule="evenodd" clip-rule="evenodd" d="M17.5 1.25C18.1904 1.25 18.75 1.80964 18.75 2.5V8.75H25C25.6904 8.75 26.25 9.30964 26.25 10C26.25 10.6904 25.6904 11.25 25 11.25H17.5C16.8096 11.25 16.25 10.6904 16.25 10V2.5C16.25 1.80964 16.8096 1.25 17.5 1.25Z" fill="#102570"/>
<path fill-rule="evenodd" clip-rule="evenodd" d="M12.1339 15.3661C12.622 15.8543 12.622 16.6457 12.1339 17.1339L7.13388 22.1339C6.64573 22.622 5.85427 22.622 5.36612 22.1339L2.86612 19.6339C2.37796 19.1457 2.37796 18.3543 2.86612 17.8661C3.35427 17.378 4.14573 17.378 4.63388 17.8661L6.25 19.4822L10.3661 15.3661C10.8543 14.878 11.6457 14.878 12.1339 15.3661Z" fill="#102570"/>
</svg>
