<svg width="30" height="30" viewBox="0 0 30 30" fill="none" xmlns="http://www.w3.org/2000/svg">
<path d="M15 28.75C13.6875 28.75 12.4 28.5 11.175 27.9875C9.95 27.475 8.8625 26.75 7.9375 25.825C7 24.8875 6.275 23.8 5.775 22.575C5.2625 21.35 5 20.0625 5 18.75C5 17.125 5.5875 15.3875 6.525 14.2125C6.8625 13.8 7.4125 13.6375 7.9125 13.8125C8.4125 14 8.75 14.475 8.75 15C8.75 15.5 8.95 15.975 9.3 16.325C10.0125 17.0375 11.2375 17.0375 11.95 16.325C12.3 15.975 12.5 15.5 12.5 15C12.5 13.9 12.2 13.3375 11.7375 12.4875C11.625 12.275 11.5 12.05 11.3875 11.8125C9.85 8.75003 10.7625 5.80003 14.1875 2.81253C14.525 2.51253 14.9875 2.42503 15.4125 2.57503C15.8375 2.71253 16.15 3.07503 16.2375 3.51253C16.8 6.31253 18.5 9.07503 20.7875 10.9125C23.5375 13.1125 25 15.825 25 18.75C25 20.075 24.7375 21.3625 24.2375 22.575C23.7375 23.8 23 24.8875 22.075 25.825C21.1375 26.7625 20.05 27.4875 18.825 27.9875C17.6125 28.4875 16.325 28.75 15 28.75ZM7.55 18.1125C7.5125 18.325 7.5 18.5375 7.5 18.75C7.5 19.7375 7.6875 20.7 8.075 21.625C8.45 22.5375 9 23.3625 9.7 24.0625C10.4 24.7625 11.2125 25.3125 12.1375 25.6875C13.975 26.45 16.05 26.4375 17.875 25.6875C18.7875 25.3125 19.6125 24.7625 20.3125 24.0625C21.0125 23.3625 21.5625 22.55 21.9375 21.625C22.3125 20.7 22.5 19.7375 22.5 18.75C22.5 16.6125 21.3625 14.5625 19.225 12.85C17.075 11.125 15.3625 8.72503 14.4 6.13753C12.75 8.13753 13.05 9.55003 13.6125 10.6875C13.725 10.9 13.825 11.1125 13.9375 11.3C14.4625 12.275 15 13.275 15 15C15 16.175 14.55 17.2625 13.725 18.0875C12.0625 19.7375 9.2 19.75 7.55 18.1125Z" fill="#102570"/>
</svg>
