<svg width="30" height="30" viewBox="0 0 30 30" fill="none" xmlns="http://www.w3.org/2000/svg">
<path fill-rule="evenodd" clip-rule="evenodd" d="M23.75 8.75C24.2711 8.74997 24.7375 9.07313 24.9205 9.56097L28.6717 19.561C28.8667 20.0808 28.6954 20.6671 28.2512 21.0001C26.9527 21.9736 25.3736 22.4998 23.7507 22.4998C22.1278 22.4998 20.5487 21.9736 19.2503 21.0001C18.806 20.6671 18.6347 20.0809 18.8297 19.5611L22.5797 9.5611C22.7626 9.07324 23.229 8.75003 23.75 8.75ZM23.7503 13.5595L21.5301 19.48C22.2168 19.8201 22.9763 19.9998 23.7507 19.9998C24.5251 19.9998 25.2846 19.8201 25.9712 19.48L23.7503 13.5595Z" fill="#102570"/>
<path fill-rule="evenodd" clip-rule="evenodd" d="M6.24944 8.75C6.77048 8.74997 7.23688 9.07313 7.41988 9.56097L11.1711 19.561C11.3661 20.0808 11.1949 20.6671 10.7506 21.0001C9.45212 21.9736 7.87301 22.4998 6.25014 22.4998C4.62727 22.4998 3.04815 21.9736 1.74969 21.0001L2.49951 20L1.3291 19.5611L5.0791 9.5611C5.26205 9.07324 5.72841 8.75003 6.24944 8.75ZM4.02952 19.48C4.71618 19.8201 5.47569 19.9998 6.25014 19.9998C7.02455 19.9998 7.78402 19.8201 8.47065 19.48L6.24971 13.5595L4.02952 19.48Z" fill="#102570"/>
<path fill-rule="evenodd" clip-rule="evenodd" d="M7.5 26.25C7.5 25.5596 8.05964 25 8.75 25H21.25C21.9404 25 22.5 25.5596 22.5 26.25C22.5 26.9404 21.9404 27.5 21.25 27.5H8.75C8.05964 27.5 7.5 26.9404 7.5 26.25Z" fill="#102570"/>
<path fill-rule="evenodd" clip-rule="evenodd" d="M15 2.5C15.6904 2.5 16.25 3.05964 16.25 3.75V26.25C16.25 26.9404 15.6904 27.5 15 27.5C14.3096 27.5 13.75 26.9404 13.75 26.25V3.75C13.75 3.05964 14.3096 2.5 15 2.5Z" fill="#102570"/>
<path fill-rule="evenodd" clip-rule="evenodd" d="M14.441 5.13197C14.7929 4.95601 15.2071 4.95601 15.559 5.13197C17.9883 6.34659 21.5332 7.5 23.75 7.5H26.25C26.9404 7.5 27.5 8.05964 27.5 8.75C27.5 9.44036 26.9404 10 26.25 10H23.75C21.1615 10 17.5594 8.83524 15 7.63823C12.4406 8.83524 8.8385 10 6.25 10H3.75C3.05964 10 2.5 9.44036 2.5 8.75C2.5 8.05964 3.05964 7.5 3.75 7.5H6.25C8.46678 7.5 12.0117 6.34659 14.441 5.13197Z" fill="#102570"/>
</svg>
