<svg width="456" height="406" viewBox="0 0 456 406" fill="none" xmlns="http://www.w3.org/2000/svg">
<g clip-path="url(#clip0_302_3018)">
<path d="M303.596 9.17368C303.596 9.17368 228.211 -19.0074 155.091 23.4104C81.9704 65.8281 45.8565 151.437 14.7969 219.971C-16.2626 288.505 2.96876 358.878 59.5918 391.565C116.215 424.253 153.879 377.602 232.73 376.31C311.582 375.019 332.946 386.785 397.846 342.142C462.746 297.499 473.24 190.225 420.619 110.103C367.998 29.9819 303.596 9.17368 303.596 9.17368Z" fill="#00A6FF"/>
<path opacity="0.8" d="M303.596 9.17368C303.596 9.17368 228.211 -19.0074 155.091 23.4104C81.9704 65.8281 45.8565 151.437 14.7969 219.971C-16.2626 288.505 2.96876 358.878 59.5918 391.565C116.215 424.253 153.879 377.602 232.73 376.31C311.582 375.019 332.946 386.785 397.846 342.142C462.746 297.499 473.24 190.225 420.619 110.103C367.998 29.9819 303.596 9.17368 303.596 9.17368Z" fill="white"/>
<g opacity="0.3">
<path d="M83.5985 87.2502C96.9094 73.892 96.9094 52.2342 83.5985 38.876C70.2876 25.5178 48.7063 25.5178 35.3955 38.876C22.0846 52.2342 22.0846 73.8921 35.3955 87.2502C48.7063 100.608 70.2876 100.608 83.5985 87.2502Z" stroke="#181818" stroke-miterlimit="10"/>
<path d="M59.4975 94.9425C77.0404 94.9425 91.2617 80.6707 91.2617 63.0656C91.2617 45.4604 77.0404 31.1886 59.4975 31.1886C41.9547 31.1886 27.7334 45.4604 27.7334 63.0656C27.7334 80.6707 41.9547 94.9425 59.4975 94.9425Z" stroke="#181818" stroke-miterlimit="10"/>
<path d="M65.5386 72.6354L59.4977 63.0657H33.4551" stroke="#181818" stroke-miterlimit="10"/>
</g>
<g opacity="0.3">
<path d="M347.095 29.3502H312.475V100.062H347.095V29.3502Z" stroke="#181818" stroke-miterlimit="10"/>
<path d="M385.971 29.3502H351.351V100.062H385.971V29.3502Z" stroke="#181818" stroke-miterlimit="10"/>
<path d="M424.847 29.3502H390.227V100.062H424.847V29.3502Z" stroke="#181818" stroke-miterlimit="10"/>
<path d="M347.095 103.72H312.475V174.432H347.095V103.72Z" stroke="#181818" stroke-miterlimit="10"/>
<path d="M385.971 103.72H351.351V174.432H385.971V103.72Z" stroke="#181818" stroke-miterlimit="10"/>
<path d="M424.847 103.72H390.227V174.432H424.847V103.72Z" stroke="#181818" stroke-miterlimit="10"/>
<path d="M347.095 178.091H312.475V248.803H347.095V178.091Z" stroke="#181818" stroke-miterlimit="10"/>
<path d="M385.971 178.091H351.351V248.803H385.971V178.091Z" stroke="#181818" stroke-miterlimit="10"/>
<path d="M424.847 178.091H390.227V248.803H424.847V178.091Z" stroke="#181818" stroke-miterlimit="10"/>
<path d="M347.095 252.461H312.475V323.173H347.095V252.461Z" stroke="#181818" stroke-miterlimit="10"/>
<path d="M385.971 252.461H351.351V323.173H385.971V252.461Z" stroke="#181818" stroke-miterlimit="10"/>
<path d="M424.847 252.461H390.227V323.173H424.847V252.461Z" stroke="#181818" stroke-miterlimit="10"/>
</g>
<path d="M17.4834 330.527H456" stroke="#181818" stroke-miterlimit="10"/>
<path d="M45.3214 235.923C45.3207 235.906 45.3256 235.888 45.3354 235.873C45.3453 235.858 45.3595 235.847 45.3762 235.841C45.3928 235.834 45.411 235.834 45.4281 235.838C45.4453 235.843 45.4605 235.853 45.4717 235.867C47.8568 241.575 49.7429 247.481 51.1086 253.517C52.4854 259.553 53.5205 265.663 54.2089 271.817L54.6411 276.437C54.7162 277.21 54.8008 277.983 54.8478 278.756L54.9793 281.075C55.0451 282.622 55.139 284.168 55.186 285.724L55.1108 290.391V292.71C55.1108 293.483 55.0169 294.256 54.9699 295.029C54.8478 296.576 54.7538 298.122 54.6129 299.659C54.3217 302.742 53.8613 305.806 53.3822 308.861C53.3764 308.877 53.3656 308.892 53.3513 308.902C53.337 308.912 53.3199 308.918 53.3023 308.918C53.2848 308.918 53.2676 308.912 53.2533 308.902C53.239 308.892 53.2282 308.877 53.2225 308.861C53.2225 307.314 53.2976 305.768 53.3258 304.231C53.354 302.694 53.5043 301.158 53.4855 299.611C53.4667 298.065 53.4855 296.538 53.4855 295.001V292.691V290.391V285.79L53.3634 281.179L53.3164 278.879C53.3164 278.115 53.2319 277.342 53.1849 276.578L52.903 271.977C52.3814 265.849 51.5157 259.755 50.31 253.724C49.1644 247.657 47.4952 241.701 45.3214 235.923Z" fill="#181818"/>
<path d="M44.6631 260.003C44.6689 259.987 44.6796 259.972 44.694 259.962C44.7083 259.952 44.7254 259.946 44.7429 259.946C44.7605 259.946 44.7776 259.952 44.7919 259.962C44.8062 259.972 44.817 259.987 44.8228 260.003C46.1218 263.841 47.2101 267.747 48.0828 271.704C48.9493 275.672 49.5954 279.685 50.0182 283.725C50.4222 287.751 50.8731 291.786 50.9577 295.84C51.0532 299.896 50.9089 303.954 50.5255 307.993C50.5255 307.993 50.5255 308.059 50.4503 308.069C50.4295 308.069 50.4093 308.061 50.3936 308.047C50.378 308.033 50.3681 308.014 50.3658 307.993C49.896 303.958 49.6142 299.932 49.3323 295.906C49.0505 291.88 49.0129 287.854 48.7499 283.828C48.4941 279.814 48.0174 275.816 47.3218 271.855C46.6528 267.858 45.7652 263.902 44.6631 260.003Z" fill="#181818"/>
<path d="M31.3604 268.479C31.3767 268.467 31.3965 268.46 31.4168 268.46C31.4371 268.46 31.4569 268.467 31.4732 268.479C34.8107 270.617 37.8178 273.235 40.3983 276.248C41.6928 277.764 42.8558 279.389 43.8744 281.104L44.5884 282.452L45.1521 283.857C45.3494 284.328 45.4904 284.8 45.6407 285.29C45.791 285.78 45.9413 286.233 46.0728 286.723C47.1038 290.576 47.7335 294.525 47.9518 298.508C48.1479 302.467 48.0001 306.436 47.5103 310.369C47.508 310.387 47.499 310.404 47.4852 310.416C47.4713 310.429 47.4535 310.435 47.4351 310.435C47.4245 310.436 47.4137 310.436 47.4034 310.432C47.3932 310.429 47.3838 310.424 47.3758 310.417C47.3678 310.409 47.3614 310.401 47.357 310.391C47.3527 310.381 47.3505 310.37 47.3505 310.36L46.3359 298.621C46.0554 294.738 45.5598 290.872 44.8515 287.044C44.7482 286.572 44.6072 286.101 44.4945 285.639C44.3809 285.17 44.243 284.707 44.0811 284.253L43.5362 282.848L42.9255 281.566C41.9986 279.862 40.9333 278.238 39.7407 276.71C37.3675 273.598 34.5538 270.85 31.3886 268.555C31.3791 268.545 31.3718 268.533 31.3669 268.52C31.3621 268.507 31.3599 268.493 31.3604 268.479Z" fill="#181818"/>
<path d="M37.8054 283.564C39.5339 284.832 40.922 286.51 41.8452 288.448C42.8388 290.346 43.6142 292.352 44.1563 294.426C44.316 294.935 44.4476 295.454 44.5603 295.972L44.9267 297.537C45.1163 298.585 45.2449 299.642 45.3119 300.705C45.3119 301.77 45.3119 302.836 45.3119 303.901C45.2349 304.964 45.0968 306.022 44.8985 307.069C44.8942 307.085 44.8859 307.099 44.8743 307.111C44.8628 307.122 44.8485 307.131 44.8327 307.135C44.8222 307.138 44.8112 307.138 44.8004 307.136C44.7897 307.134 44.7795 307.13 44.7705 307.124C44.7616 307.118 44.7541 307.11 44.7486 307.1C44.7432 307.091 44.7398 307.08 44.7388 307.069C44.4973 306.039 44.3091 304.998 44.1751 303.948C44.0154 302.911 43.8557 301.884 43.7335 300.856C43.6114 299.828 43.4423 298.81 43.3671 297.782C43.292 296.755 43.1511 295.727 42.9256 294.718C42.5703 292.685 41.9873 290.699 41.1875 288.797C40.4735 286.855 39.3113 285.11 37.796 283.706C37.7828 283.692 37.7754 283.673 37.7754 283.654C37.7754 283.635 37.7828 283.616 37.796 283.602C37.7958 283.589 37.799 283.576 37.8054 283.564Z" fill="#181818"/>
<path d="M56.4635 295.331C56.8956 290.117 57.7506 284.96 58.5679 279.793C59.3853 274.626 60.2684 269.498 61.2079 264.359C62.1474 259.221 63.1996 254.111 64.3082 249.01C64.3104 249 64.3146 248.99 64.3206 248.982C64.3265 248.974 64.3342 248.967 64.343 248.961C64.3518 248.956 64.3616 248.952 64.3717 248.951C64.3819 248.95 64.3923 248.95 64.4021 248.953C64.4219 248.96 64.4391 248.972 64.451 248.989C64.4629 249.006 64.4689 249.027 64.4679 249.048C63.5723 254.189 62.7549 259.337 62.0158 264.491C61.2361 269.648 60.4939 274.806 59.8456 280.019C59.1974 285.233 58.7182 290.391 58.07 295.538L56.191 311.048C56.191 311.068 56.1831 311.087 56.169 311.101C56.1549 311.115 56.1358 311.123 56.1158 311.123C56.1052 311.125 56.0944 311.124 56.0842 311.12C56.074 311.117 56.0645 311.112 56.0565 311.105C56.0485 311.098 56.0421 311.089 56.0378 311.079C56.0334 311.069 56.0312 311.059 56.0313 311.048C55.9749 309.737 55.9655 308.427 55.9373 307.116C55.9092 305.806 55.9937 304.505 56.0125 303.194C56.0407 300.535 56.2662 297.933 56.4635 295.331Z" fill="#181818"/>
<path d="M59.5728 295.256C59.8546 293.191 60.2304 291.135 60.625 289.089L61.3484 286.044C61.5927 285.026 61.8182 284.017 62.1094 283.008C63.1508 278.968 64.4789 275.007 66.0834 271.157L66.7035 269.724L67.3987 268.319C67.8403 267.376 68.3382 266.433 68.8737 265.566C69.8985 263.742 71.1624 262.065 72.6317 260.578C72.6472 260.564 72.6673 260.557 72.6881 260.557C72.7089 260.557 72.7289 260.564 72.7444 260.578C72.7524 260.585 72.7588 260.594 72.7632 260.604C72.7676 260.614 72.7699 260.624 72.7699 260.635C72.7699 260.646 72.7676 260.656 72.7632 260.666C72.7588 260.676 72.7524 260.684 72.7444 260.692C71.3786 262.23 70.2252 263.945 69.3153 265.792C68.8643 266.735 68.3758 267.631 68 268.621L67.3987 270.044L66.8538 271.496C65.4149 275.357 64.2594 279.318 63.3965 283.348C62.9174 285.356 62.6073 287.402 62.2221 289.419L61.7336 292.474C61.5551 293.492 61.339 294.501 61.1981 295.52C60.8693 297.556 60.5029 299.593 60.1459 301.629C59.7889 303.666 59.46 305.721 59.0279 307.757C59.0279 307.757 59.0279 307.833 58.9527 307.833C58.9303 307.833 58.9088 307.824 58.8929 307.808C58.8771 307.792 58.8682 307.77 58.8682 307.748C58.8682 305.667 58.9151 303.584 59.0091 301.497C59.1124 299.395 59.3567 297.32 59.5728 295.256Z" fill="#181818"/>
<path d="M63.885 295.52C64.8244 292.785 65.9612 290.108 67.1732 287.477C68.3948 284.859 69.7753 282.318 71.3069 279.869C71.3202 279.855 71.3377 279.846 71.3565 279.844C71.3753 279.842 71.3944 279.846 71.4106 279.855C71.4269 279.865 71.4394 279.88 71.4461 279.898C71.4529 279.916 71.4535 279.935 71.4479 279.954C70.1124 282.497 68.9327 285.12 67.9154 287.807C66.8631 290.466 65.9143 293.172 65.0969 295.925C64.2795 298.678 63.7065 301.469 62.9737 304.222C62.2409 306.975 61.5926 309.766 60.7471 312.556C60.7406 312.572 60.7302 312.585 60.717 312.595C60.7038 312.605 60.6883 312.611 60.6719 312.613C60.651 312.613 60.6308 312.606 60.6152 312.592C60.5996 312.578 60.5897 312.558 60.5873 312.538C60.5502 309.626 60.821 306.718 61.3953 303.864C61.9985 301.019 62.8312 298.229 63.885 295.52Z" fill="#181818"/>
<path d="M64.0544 304.627C64.5779 302.921 65.347 301.302 66.3374 299.819C67.2592 298.292 68.3775 296.894 69.6632 295.661C70.3252 295.071 71.0355 294.538 71.7864 294.068C72.5362 293.579 73.3571 293.21 74.2197 292.974C74.2383 292.97 74.2578 292.973 74.2748 292.981C74.2919 292.99 74.3056 293.004 74.3136 293.021C74.3268 293.035 74.3342 293.054 74.3342 293.073C74.3342 293.092 74.3268 293.111 74.3136 293.125C72.7779 293.857 71.4188 294.916 70.3302 296.227C69.2073 297.499 68.2593 298.916 67.5117 300.441C66.7319 301.94 66.3186 303.6 65.6327 305.155C65.3321 305.947 65.0315 306.739 64.6933 307.531C64.3951 308.356 64.0469 309.162 63.6504 309.945C63.6402 309.95 63.6289 309.952 63.6175 309.952C63.6061 309.952 63.5949 309.95 63.5847 309.945C63.5622 309.945 63.5407 309.936 63.5249 309.92C63.509 309.904 63.5001 309.883 63.5001 309.86C63.4704 308.973 63.5018 308.084 63.5941 307.201C63.6598 306.362 63.8853 305.476 64.0544 304.627Z" fill="#181818"/>
<path d="M63.7255 256.449C66.3204 255.727 68.6695 254.307 70.519 252.343C72.3685 250.379 73.6481 247.945 74.2196 245.305C76.1925 236.112 69.8603 240.053 75.5349 225.6C81.2094 211.146 79.8941 207.856 77.9306 203.698C75.967 199.54 74.8772 200.869 73.1298 206.319C71.3823 211.768 65.0596 220.339 62.6545 236.329C60.2494 252.319 63.7255 256.449 63.7255 256.449Z" fill="#00A6FF"/>
<path d="M46.9746 240.93C46.9746 240.93 52.6115 238.959 52.8652 228.221C53.1188 217.482 48.722 219.679 48.0644 206.319C47.4067 192.959 46.533 183.54 44.1373 183.323C41.7416 183.106 35.4095 189.923 33.2204 204.791C31.0314 219.66 36.0389 229.541 40.4263 233.915C44.8137 238.29 46.9746 240.93 46.9746 240.93Z" fill="#00A6FF"/>
<path d="M66.7881 269.394C66.7881 269.394 68.094 261.512 70.7152 257.788C73.3363 254.064 79.0108 250.792 82.6749 243.551C86.3389 236.31 90.5384 232.822 90.3223 243.117C90.1062 253.413 85.5497 258.665 79.8564 262.172C74.1631 265.679 66.7881 269.394 66.7881 269.394Z" fill="#00A6FF"/>
<path d="M69.1836 282.98C69.1836 282.98 74.4259 272.901 82.064 265.453C89.702 258.005 95.8087 254.29 93.6291 258.014C91.4495 261.738 88.8283 261.512 85.1173 268.083C81.4064 274.655 82.4962 279.473 77.2632 283.169C72.0302 286.864 69.1836 282.98 69.1836 282.98Z" fill="#00A6FF"/>
<path d="M69.8418 295.897C70.0579 295.246 70.274 290.428 77.6959 286.468C85.1179 282.509 92.0983 284.064 91.2246 286.035C90.3509 288.005 85.7755 291.286 81.1908 293.266C76.6061 295.246 69.8418 295.897 69.8418 295.897Z" fill="#00A6FF"/>
<path d="M47.36 269.837C47.36 269.837 50.6388 265.679 48.8914 256.911C47.1439 248.143 43.2544 250.311 38.8482 245.748C34.442 241.184 35.3627 240.487 31.0035 235.707C26.6442 230.927 22.7078 228.258 20.9603 230.229C19.2129 232.199 21.8341 238.337 24.4552 241.844C27.0764 245.352 31.2196 247.096 33.1831 251.48C35.1466 255.864 34.2729 262.87 39.2992 266.151C44.3254 269.432 47.36 269.837 47.36 269.837Z" fill="#00A6FF"/>
<path d="M36.4518 272.241C36.4518 272.241 28.5883 263.265 22.9232 256.694C17.2581 250.122 15.0315 245.135 14.8436 249.472C14.6557 253.809 12.88 257.392 17.4647 263.049C22.0495 268.706 36.4518 272.241 36.4518 272.241Z" fill="#00A6FF"/>
<path d="M40.5956 286.704C40.5956 286.704 40.8117 283.197 28.3822 275.088C15.9528 266.98 10.701 265.453 12.0069 268.706C13.3128 271.958 18.7713 275.305 24.6619 281.189C30.5525 287.072 40.5956 286.704 40.5956 286.704Z" fill="#00A6FF"/>
<path d="M63.209 255.506C63.209 255.506 66.1308 239.789 69.1841 228.626C72.2375 217.463 74.2198 210.703 74.2198 210.703" stroke="#181818" stroke-linecap="round" stroke-linejoin="round"/>
<path d="M47.425 241.09C47.425 241.09 42.1263 224.063 40.3788 213.748C38.6314 203.434 40.5949 195.835 41.4686 191.186" stroke="#181818" stroke-linecap="round" stroke-linejoin="round"/>
<path d="M67.4736 269.073C69.8238 265.017 72.5142 261.169 75.5157 257.571C80.3165 251.914 84.0274 248.812 86.2071 243.334" stroke="#181818" stroke-linecap="round" stroke-linejoin="round"/>
<path d="M47.3592 269.837C47.3592 269.837 45.6118 259.324 41.4686 253.809C37.3255 248.293 29.0298 239.827 25.751 234.358" stroke="#181818" stroke-linecap="round" stroke-linejoin="round"/>
<path d="M70.3486 295.661C70.3486 295.661 77.6954 290.862 82.9378 288.231" stroke="#181818" stroke-linecap="round" stroke-linejoin="round"/>
<path d="M47.3408 353.692C45.7013 353.684 44.1238 353.062 42.9176 351.947C41.7114 350.833 40.9636 349.306 40.8208 347.667C39.7309 334.703 37.4574 305.476 38.6317 304.005C43.4419 298.122 64.1577 298.122 68.9679 304.005C70.1422 305.438 67.8687 334.666 66.7789 347.667C66.636 349.306 65.8882 350.833 64.682 351.947C63.4759 353.062 61.8983 353.684 60.2588 353.692H47.3408Z" fill="#181818" stroke="#181818" stroke-linecap="round" stroke-linejoin="round"/>
<path d="M168.591 242.542H163.499V262.983H168.591V242.542Z" fill="#181818" stroke="#181818" stroke-linecap="round" stroke-linejoin="round"/>
<path d="M247.198 242.542H242.106V262.983H247.198V242.542Z" fill="#181818" stroke="#181818" stroke-linecap="round" stroke-linejoin="round"/>
<path d="M174.651 175.771H234.308C236.105 175.771 237.828 176.487 239.098 177.762C240.368 179.037 241.082 180.766 241.082 182.569V271.779H167.877V182.559C167.879 180.758 168.594 179.032 169.864 177.759C171.134 176.486 172.856 175.771 174.651 175.771Z" fill="#989898" stroke="#181818" stroke-linecap="round" stroke-linejoin="round"/>
<path d="M171.138 353.683C173.244 353.683 174.952 351.969 174.952 349.855C174.952 347.741 173.244 346.027 171.138 346.027C169.031 346.027 167.323 347.741 167.323 349.855C167.323 351.969 169.031 353.683 171.138 353.683Z" fill="white" stroke="#181818" stroke-linecap="round" stroke-linejoin="round"/>
<path d="M208.369 349.855C208.369 349.095 208.145 348.353 207.724 347.722C207.303 347.091 206.706 346.599 206.007 346.309C205.307 346.018 204.538 345.943 203.796 346.092C203.054 346.241 202.373 346.607 201.838 347.145C201.304 347.682 200.94 348.367 200.794 349.112C200.648 349.857 200.725 350.629 201.015 351.33C201.306 352.031 201.798 352.629 202.428 353.05C203.058 353.47 203.798 353.694 204.555 353.692C205.056 353.692 205.553 353.593 206.017 353.4C206.48 353.207 206.901 352.924 207.255 352.567C207.61 352.211 207.89 351.788 208.081 351.322C208.273 350.857 208.37 350.358 208.369 349.855Z" fill="white" stroke="#181818" stroke-linecap="round" stroke-linejoin="round"/>
<path d="M241.787 349.855C241.787 349.095 241.563 348.353 241.142 347.722C240.721 347.091 240.124 346.599 239.424 346.309C238.725 346.018 237.956 345.943 237.214 346.092C236.472 346.241 235.791 346.607 235.256 347.145C234.722 347.682 234.358 348.367 234.212 349.112C234.066 349.857 234.143 350.629 234.433 351.33C234.724 352.031 235.216 352.629 235.846 353.05C236.476 353.47 237.216 353.694 237.973 353.692C238.474 353.692 238.971 353.593 239.435 353.4C239.898 353.207 240.319 352.924 240.673 352.567C241.028 352.211 241.308 351.788 241.499 351.322C241.691 350.857 241.788 350.358 241.787 349.855Z" fill="white" stroke="#181818" stroke-linecap="round" stroke-linejoin="round"/>
<path d="M208.003 330.612V267.461H201.295V330.206L201.051 330.376L166.365 344.424V348.582H171.777V345.706L201.831 341.266L202.385 348.582H206.397L206.951 341.313L236.695 345.706V348.582H242.107V344.424L208.003 330.612Z" fill="#181818" stroke="#181818" stroke-linecap="round" stroke-linejoin="round"/>
<path d="M215.124 274.447H193.826V282.018H215.124V274.447Z" fill="#181818" stroke="#181818" stroke-linecap="round" stroke-linejoin="round"/>
<path d="M244.493 257.976H164.458C163.036 257.976 161.884 259.133 161.884 260.56V272.307C161.884 273.734 163.036 274.891 164.458 274.891H244.493C245.915 274.891 247.067 273.734 247.067 272.307V260.56C247.067 259.133 245.915 257.976 244.493 257.976Z" fill="#989898" stroke="#181818" stroke-linecap="round" stroke-linejoin="round"/>
<path d="M165.82 230.719H159.582C158.404 230.719 157.449 231.677 157.449 232.859V244.23C157.449 245.412 158.404 246.37 159.582 246.37H165.82C166.998 246.37 167.953 245.412 167.953 244.23V232.859C167.953 231.677 166.998 230.719 165.82 230.719Z" fill="#989898" stroke="#181818" stroke-linecap="round" stroke-linejoin="round"/>
<path d="M249.05 230.719H242.811C241.634 230.719 240.679 231.677 240.679 232.859V244.23C240.679 245.412 241.634 246.37 242.811 246.37H249.05C250.227 246.37 251.182 245.412 251.182 244.23V232.859C251.182 231.677 250.227 230.719 249.05 230.719Z" fill="#989898" stroke="#181818" stroke-linecap="round" stroke-linejoin="round"/>
<path d="M89.7403 255.666L315.688 255.666V233.604L89.7403 233.604V255.666Z" fill="white" stroke="#181818" stroke-linecap="round" stroke-linejoin="round"/>
<path d="M89.7403 239.469L315.688 239.469V233.604L89.7403 233.604V239.469Z" fill="#181818" stroke="#181818" stroke-linecap="round" stroke-linejoin="round"/>
<path d="M313.301 353.692H316.504L317.566 233.284H312.229L313.301 353.692Z" fill="white" stroke="#181818" stroke-linecap="round" stroke-linejoin="round"/>
<path d="M88.6036 353.692H91.8073L92.8783 233.284H87.542L88.6036 353.692Z" fill="white" stroke="#181818" stroke-linecap="round" stroke-linejoin="round"/>
<path d="M84.5636 235.367L320.808 235.367V230.389L84.5636 230.389V235.367Z" fill="white" stroke="#181818" stroke-linecap="round" stroke-linejoin="round"/>
<path d="M174.276 230.681H245.357V227.74H174.276V230.681Z" fill="white" stroke="#181818" stroke-linecap="round" stroke-linejoin="round"/>
<path d="M229.385 217.208H314.907V159.375H229.385V217.208Z" fill="#181818" stroke="#181818" stroke-linecap="round" stroke-linejoin="round"/>
<path d="M247.856 230.681H282.467V227.419H247.856V230.681Z" fill="#989898" stroke="#181818" stroke-linecap="round" stroke-linejoin="round"/>
<path d="M261.836 230.681H282.467V193.242H261.836V230.681Z" fill="#989898" stroke="#181818" stroke-linecap="round" stroke-linejoin="round"/>
<path d="M197.621 34.0172L207.26 36.4308" stroke="#181818" stroke-miterlimit="10"/>
<path d="M213.283 14.6704L216.102 21.1193" stroke="#181818" stroke-miterlimit="10"/>
<path d="M270.319 34.0172L260.68 36.4308" stroke="#181818" stroke-miterlimit="10"/>
<path d="M254.658 14.6704L251.84 21.1193" stroke="#181818" stroke-miterlimit="10"/>
<path d="M234.571 6.20374V14.2649" stroke="#181818" stroke-miterlimit="10"/>
<path d="M243.083 52.242L241.12 40.0418C241.12 40.0418 240.18 31.7827 240.18 29.0673C240.18 26.352 239.241 26.1068 238.827 26.6065L237.719 27.2194C237.719 27.2194 237.352 24.0138 236.375 25.0037C235.751 25.6389 235.345 26.4585 235.22 27.3419C234.48 28.7388 233.943 30.234 233.623 31.7827C233.385 33.1999 233.222 34.6287 233.134 36.0631L232.514 35.2334C232.514 35.2334 232.148 31.1604 232.025 30.3024C231.903 29.4444 230.55 30.425 230.428 33.508C230.334 35.9122 231.734 42.0689 232.307 44.6617C231.978 47.4242 231.687 50.8843 232.101 52.4871C232.672 54.4549 233.613 56.295 234.872 57.9084C235.361 58.6532 238.311 66.6672 238.311 66.6672L247.151 62.7168L243.083 52.242Z" fill="white" stroke="#181818" stroke-miterlimit="10"/>
<path d="M239.767 47.311C239.767 47.311 237.183 42.5026 236.695 41.6541C236.206 40.8055 233.256 37.2133 232.514 35.2428C231.772 33.2723 230.062 35.9782 230.795 38.0713C231.528 40.1644 234.487 43.9923 234.487 43.9923C233.934 46.0325 234.062 48.1986 234.854 50.1584C235.736 51.912 237.155 53.336 238.903 54.2219" fill="white"/>
<path d="M239.767 47.311C239.767 47.311 237.183 42.5026 236.695 41.6541C236.206 40.8055 233.256 37.2133 232.514 35.2428C231.772 33.2723 230.062 35.9782 230.795 38.0713C231.528 40.1644 234.487 43.9923 234.487 43.9923C233.934 46.0325 234.062 48.1986 234.854 50.1584C235.736 51.912 237.155 53.336 238.903 54.2219" stroke="#181818" stroke-miterlimit="10"/>
<path d="M237.691 27.2194C237.691 27.2194 236.836 36.8362 237.203 40.5321" stroke="#181818" stroke-miterlimit="10"/>
<path d="M235.22 27.3419C235.22 27.3419 234.356 34.9882 234.854 38.1939" stroke="#181818" stroke-miterlimit="10"/>
<path d="M308.152 115.468C308.152 115.468 293.027 110.179 292.003 110.179C290.979 110.179 280.391 109.415 280.391 109.415L267.858 102.815L247.659 61.6609L235.718 67.4876C235.718 67.4876 239.974 89.5026 243.375 101.618C246.776 113.733 250.656 120.682 250.656 120.682L277.685 140.868L279.047 142.753L308.152 115.468Z" fill="#00A6FF" stroke="#181818" stroke-miterlimit="10"/>
<path d="M265.275 165.296C265.275 165.296 259.638 189.866 259.638 203.009C259.638 216.152 259.985 219.556 260.831 220.075C261.676 220.593 271.372 222.29 272.227 222.12C273.082 221.951 275.628 221.093 275.628 221.093C275.628 221.093 288.038 162.053 289.401 154.718C290.763 147.383 292.623 131.336 292.623 131.336C292.623 131.336 278.343 143.592 274.435 147.892C270.526 152.191 270.865 152.323 269.164 155.566C267.685 158.733 266.387 161.982 265.275 165.296Z" fill="#00A6FF" stroke="#181818" stroke-miterlimit="10"/>
<path d="M271.747 352.975C271.747 352.975 267.19 360.518 266.392 361.338C265.593 362.158 258.66 366.307 256.678 366.91C254.695 367.514 252.516 368.702 252.516 370.682C252.516 372.662 259.092 373.661 262.427 373.661C265.762 373.661 275.712 373.067 276.905 373.067C278.356 372.968 279.813 372.968 281.264 373.067C282.26 373.265 287.211 374.057 288.601 373.463C289.992 372.869 291.176 367.891 290.781 365.704C290.386 363.516 289.193 358.538 289.193 358.538L271.747 352.975Z" fill="white" stroke="#181818" stroke-miterlimit="10"/>
<path d="M332.41 360.537L329.046 366.109C326.848 368.108 324.53 369.968 322.104 371.681C316.025 375.452 324.687 377.725 328.68 377.451C331.452 377.263 336.609 377.253 338.188 376.508C341.878 374.305 345.452 371.914 348.898 369.343C351.472 367.353 351.716 365.166 351.275 362.573C350.779 360.303 350.048 358.091 349.095 355.974C349.095 355.974 338.592 352.589 335.614 354.974C333.86 356.335 332.71 358.333 332.41 360.537Z" fill="white" stroke="#181818" stroke-miterlimit="10"/>
<path d="M274.331 215.332L269.831 239.044C269.831 239.044 261.902 288.505 262.118 290.315C262.334 292.125 271.804 343.208 272.029 345.235C272.255 347.262 270 349.298 270 349.298L270.451 354.267C270.451 354.267 276.088 358.114 279.902 358.981C283.094 359.606 286.329 359.984 289.579 360.113C289.579 360.113 291.608 355.823 291.608 355.144C291.608 354.465 290.302 349.977 290.302 349.298C290.302 348.62 286.695 288.957 286.695 288.957L295.469 254.855C295.469 254.855 307.401 290.994 308.519 293.511C309.637 296.029 331.349 351.193 331.349 351.193C331.349 351.193 329.329 353.909 330.005 355.908C330.682 357.906 331.574 361.781 331.574 361.781C331.574 361.781 336.525 356.124 339.005 357.944C340.387 358.852 341.418 360.206 341.927 361.781L349.81 358.623C349.81 358.623 350.477 355.455 350.026 353.909C349.575 352.363 348.457 354.361 348.457 348.488C348.457 342.614 340.706 307.512 339.128 302.091C337.549 296.67 331.029 286.516 331.029 286.516L328.098 231.832V219.179L274.331 215.332Z" fill="#181818" stroke="#181818" stroke-miterlimit="10"/>
<path d="M312.126 118.221C312.126 118.221 306.32 116.335 303.962 117.438C301.604 118.542 282.119 139.237 281.847 140.557C281.574 141.877 271.916 206.818 270.347 211.825C268.778 216.831 277.44 223.139 277.44 223.139L282.692 225.515L287.164 220.235L286.901 226.561C286.901 226.561 300.561 226.825 304.751 226.307C308.941 225.788 325.251 221.593 325.251 221.593C325.251 221.593 328.661 164.636 328.924 163.59C329.187 162.543 331.818 126.405 331.818 126.405L326.82 123.246L312.126 118.221Z" fill="white" stroke="#181818" stroke-miterlimit="10"/>
<path d="M312.052 133.985L315.725 141.367C315.725 141.367 326.398 129.78 327.619 126.97C328.84 124.161 329.902 123.982 329.197 122.256C328.583 120.954 327.754 119.765 326.745 118.74C326.745 118.74 310.473 118.212 308.378 119.268C306.283 120.323 300.505 133.495 300.158 134.353L299.801 135.23L310.83 133.344L312.052 133.985Z" fill="white" stroke="#181818" stroke-miterlimit="10"/>
<path d="M307.101 119.739C307.101 119.739 271.052 153.351 269.183 155.566C267.313 157.782 265.274 165.296 265.274 165.296C265.274 165.296 268.497 150.965 269.69 148.74C270.883 146.515 296.39 120.248 296.39 120.248L303.183 115.468L310.163 117.175L307.101 119.739Z" fill="#00A6FF" stroke="#181818" stroke-miterlimit="10"/>
<path d="M310.971 74.4833C310.971 74.4833 303.803 82.0259 303.972 83.4402C304.06 84.5418 304.013 85.6501 303.831 86.7401C303.831 86.7401 296.315 92.8873 295.611 93.057C294.906 93.2267 294.906 94.4618 295.432 95.5178C295.958 96.5737 296.832 96.7529 297.18 97.6297C297.527 98.5065 297.358 100.958 295.958 105.879C294.558 110.801 293.854 111.536 295.254 112.376C296.654 113.215 306.8 116.76 306.8 116.76C306.8 116.76 307.157 131.515 307.852 133.617C308.547 135.72 312.052 133.966 312.052 133.966L326.745 119.928V117.467L338.292 103.598C338.292 103.598 341.448 92.1802 337.944 86.7401C334.44 81.3 316.073 73.5405 315.547 73.3991C314.754 73.1885 313.922 73.1773 313.124 73.3664C312.326 73.5555 311.586 73.9392 310.971 74.4833Z" fill="white" stroke="#181818" stroke-miterlimit="10"/>
<path d="M323.776 70.0803C323.776 70.0803 326.745 68.3267 324.819 67.4498C323.355 66.8884 321.736 66.8884 320.272 67.4498C319.746 67.6195 320.798 62.1794 317.829 63.7634C314.86 65.3473 310.999 69.2035 310.125 71.834C309.252 74.4645 311.873 79.5651 314.146 79.914C316.638 80.4694 319.095 81.1746 321.503 82.0259C321.921 82.3864 322.202 82.8811 322.298 83.426C322.394 83.9708 322.299 84.5322 322.029 85.0147C321.146 86.9003 316.072 90.8036 316.777 91.8596C317.482 92.9156 319.229 95.3764 319.229 95.3764C319.229 95.3764 317.472 98.5348 317.829 99.4117C318.119 99.9874 318.621 100.427 319.229 100.637C319.229 100.637 322.376 98.7517 324.997 99.4117C327.619 100.072 326.576 104.503 325.524 106.436C324.471 108.368 323.072 110.65 323.072 110.65C323.072 110.65 326.05 117.495 326.745 117.495C327.44 117.495 336.018 108.887 339.691 105.031C343.364 101.175 344.943 94.4901 344.069 88.8803C343.195 83.2705 333.923 75.6807 330.916 73.9553C327.91 72.23 323.776 70.0803 323.776 70.0803Z" fill="#181818" stroke="#181818" stroke-miterlimit="10"/>
<path d="M299.105 89.7477C297.527 88.6917 298.757 83.7702 300.157 83.2516C301.557 82.7331 303.831 86.7401 303.831 86.7401C303.831 86.7401 311.347 92.5385 311.525 93.585C311.704 94.6316 307.504 97.7994 305.23 97.9786C302.957 98.1577 302.083 98.1577 302.083 94.8201C302.058 92.8659 302.475 90.9315 303.305 89.1632" stroke="#181818" stroke-miterlimit="10"/>
<path d="M311.525 93.6038L320.977 100.1" stroke="#181818" stroke-miterlimit="10"/>
<path d="M306.979 86.74C308.028 86.8726 309.029 87.2651 309.89 87.8823C310.751 88.4995 311.445 89.322 311.911 90.2756" stroke="#181818" stroke-miterlimit="10"/>
<path d="M298.758 102.033C300.955 102.868 303.381 102.868 305.579 102.033" stroke="#181818" stroke-miterlimit="10"/>
<path d="M323.071 110.641C323.071 110.641 319.398 111.517 317.65 110.641" stroke="#181818" stroke-miterlimit="10"/>
<path d="M306.8 116.779L313.451 116.43L306.978 122.577L306.8 116.779Z" fill="#181818" stroke="#181818" stroke-miterlimit="10"/>
<path d="M329.197 122.228C329.197 122.228 325.674 128.3 322.245 140.443C318.816 152.587 315.208 189.367 315.208 193.355C315.208 197.343 324.415 245.21 325.138 246.983C325.862 248.755 330.371 248.972 330.371 248.972C330.371 248.972 343.731 239.912 344.464 237.375C345.196 234.839 336.008 192.261 336.008 192.261C336.008 192.261 352.797 137.181 351.707 136.455C350.617 135.729 329.197 122.228 329.197 122.228Z" fill="#00A6FF" stroke="#181818" stroke-miterlimit="10"/>
<path d="M335.397 128.3C335.397 128.3 324.199 173.235 321.493 181.032C320.031 185.441 317.902 189.597 315.18 193.355" stroke="#181818" stroke-miterlimit="10"/>
<path d="M331.687 241.213C330.884 242.472 330.019 243.69 329.094 244.862C328.154 245.908 325.712 247.077 326.886 247.86C328.06 248.642 331.17 247.209 331.95 246.04L331.687 241.213Z" fill="white" stroke="#181818" stroke-miterlimit="10"/>
<path d="M338.77 231.096C338.77 231.096 331.95 237.696 331.555 238.347C331.16 238.997 330.775 244.475 330.775 246.04C330.743 246.581 330.875 247.119 331.154 247.583C331.432 248.048 331.844 248.417 332.335 248.642C332.85 248.733 333.372 248.777 333.894 248.774L335.585 248.52C336.632 248.454 337.682 248.539 338.704 248.774C340.264 249.17 343.402 249.17 344.163 248.388C344.815 247.555 345.34 246.631 345.722 245.644C346.326 244.891 346.727 243.995 346.887 243.042C347.15 241.477 348.71 233.614 348.71 233.614C348.71 233.614 337.662 229.842 338.77 231.096Z" fill="white" stroke="#181818" stroke-miterlimit="10"/>
<path d="M333.895 248.774L335.069 241.477" stroke="#181818" stroke-miterlimit="10"/>
<path d="M337.276 248.388L338.573 242.127" stroke="#181818" stroke-miterlimit="10"/>
<path d="M341.176 248.642L342.341 242.778" stroke="#181818" stroke-miterlimit="10"/>
<path d="M351.67 136.455C351.67 136.455 370.084 177.308 372.611 183.653C375.138 189.998 373.146 192.29 372.611 193.921C372.075 195.552 351.228 235.084 351.228 235.084L338.771 231.096L351.604 189.612L342.106 171.594L351.67 136.455Z" fill="#00A6FF" stroke="#181818" stroke-miterlimit="10"/>
<path d="M251.783 65.1964C251.825 62.5498 252.139 59.9146 252.723 57.3332C253.606 54.4199 252.976 53.1471 252.347 53.4016C251.717 53.6562 250.956 53.7882 250.571 56.0698C250.262 57.6576 250.095 59.27 250.073 60.8877C250.101 62.2831 251.783 65.1964 251.783 65.1964Z" fill="white" stroke="#181818" stroke-miterlimit="10"/>
<path d="M238.085 50.79C238.32 50.394 239.748 51.9403 240.753 52.8642C240.349 52.0534 240.246 52.0063 239.607 50.6109C239.085 49.6911 238.908 48.6142 239.109 47.575C239.447 46.255 242.144 49.1872 242.933 50.7146C242.529 49.4889 241.693 46.9433 241.505 46.1796C241.251 45.1614 241.383 43.766 242.134 43.2568C242.886 42.7477 244.013 45.4159 244.013 45.4159C244.949 45.8592 245.738 46.5627 246.287 47.443L250.58 56.0699L250.965 62.1511L254.883 77.1138L263.996 89.7948L253.962 94.6786L248.072 80.6588C247.056 79.7714 246.165 78.7501 245.422 77.6229C244.596 76.3312 243.835 71.5416 243.384 67.6666C243.042 66.7008 242.784 65.7072 242.613 64.6967C242.238 62.5377 241.57 57.4841 241.57 57.4841C241.57 57.4841 239.692 55.1742 238.611 53.6185C238.327 53.2123 238.133 52.7495 238.042 52.2616C237.951 51.7736 237.966 51.2718 238.085 50.79Z" fill="white" stroke="#181818" stroke-miterlimit="10"/>
<path d="M243.149 51.3746C244.023 52.7397 244.807 54.1601 245.498 55.6268C245.879 56.6454 246.193 57.6879 246.438 58.7475" stroke="#181818" stroke-miterlimit="10"/>
<path d="M244.032 45.4159C244.032 45.4159 247.32 53.1471 248.072 54.2879C248.738 55.5815 249.126 57.0014 249.209 58.4552" stroke="#181818" stroke-miterlimit="10"/>
<path d="M240.754 52.8643C241.756 53.7727 242.674 54.7698 243.497 55.8436C243.798 56.513 244.766 60.1617 244.766 60.1617" stroke="#181818" stroke-miterlimit="10"/>
<path d="M320.366 310.558C320.366 310.558 321.653 328.396 319.887 337.07C318.121 345.744 311.723 358.595 311.084 360.367C310.445 362.14 304.996 381.892 305.165 382.703C305.334 383.514 309.168 390.415 308.679 393.781C308.19 397.147 307.401 398.118 305.964 398.448C304.526 398.778 297.64 398.608 292.989 402.464C288.339 406.321 281.462 405.51 279.066 405.349C276.671 405.189 270.423 405.189 270.104 403.907C269.784 402.625 273.458 399.73 275.383 398.929C277.309 398.127 282.43 393.781 283.839 392.329C285.248 390.877 290.725 383.844 291.843 381.081C292.961 378.319 296.165 336.58 297.123 330.168C298.072 324.327 298.556 318.419 298.57 312.5C298.41 310.377 298.682 308.244 299.369 306.23L320.366 310.558Z" fill="white" stroke="#181818" stroke-miterlimit="10"/>
<path d="M275.355 398.929C276.456 398.362 277.494 397.683 278.456 396.902C279.747 397.569 281.131 398.036 282.561 398.288C283.999 398.288 294.568 391.216 298.251 389.123C301.229 387.436 305.475 387.011 306.979 386.908C307.918 389.236 308.904 391.999 308.651 393.781C308.172 397.156 307.373 398.118 305.936 398.448C304.498 398.778 297.612 398.608 292.961 402.464C288.311 406.321 281.434 405.51 279.038 405.349C276.642 405.189 270.395 405.189 270.075 403.907C269.756 402.625 273.392 399.758 275.355 398.929Z" fill="#00A6FF" stroke="#181818" stroke-miterlimit="10"/>
<path d="M372.743 305.825C372.743 305.825 378.38 315.64 380.841 325.275C383.303 334.911 382.908 376.084 383.284 376.838C383.66 377.593 387.042 385.531 388.742 388.925C390.443 392.32 394.577 397.411 394.577 398.938C394.577 400.466 391.57 400.447 391.007 400.447H380.672C380.672 400.447 377.854 399.504 377.281 398.373C376.707 397.241 376.341 392.329 375.026 390.83C373.711 389.331 370.507 385.352 370.328 383.287C370.15 381.223 371.456 374.802 371.456 373.275C371.456 371.747 367.313 354.955 365.997 350.647C364.682 346.338 358.096 334.977 357.345 325.53C356.593 316.083 355.832 311.934 355.832 311.934L372.743 305.825Z" fill="white" stroke="#181818" stroke-miterlimit="10"/>
<path d="M379.263 374.783C381.395 375.405 383.265 377.668 384.317 379.158C385.548 381.986 387.558 386.55 388.742 388.925C390.443 392.329 394.576 397.411 394.576 398.938C394.576 400.466 391.57 400.447 391.006 400.447H380.672C380.672 400.447 377.853 399.504 377.28 398.373C376.707 397.241 376.341 392.329 375.026 390.83C373.71 389.331 370.507 385.352 370.328 383.287C370.373 381.154 370.596 379.028 370.995 376.933C372.059 375.87 373.386 375.111 374.839 374.733C376.292 374.356 377.819 374.373 379.263 374.783Z" fill="#00A6FF" stroke="#181818" stroke-miterlimit="10"/>
<path d="M391.006 400.447H380.672C380.672 400.447 377.853 399.504 377.28 398.372C376.707 397.241 376.341 392.329 375.025 390.83C373.917 389.557 371.474 386.549 370.619 384.39L371.126 383.853C371.126 383.853 376.19 379.761 379.901 381.967C383.612 384.174 384.599 389.406 386.947 392.008C389.296 394.611 393.233 396.543 394.595 398.929C394.586 400.447 391.57 400.447 391.006 400.447Z" fill="#181818" stroke="#181818" stroke-miterlimit="10"/>
<path d="M376.294 153.728C376.294 153.728 382.156 185.935 382.325 186.991C382.494 188.047 387.257 203.773 386.553 207.299C385.848 210.826 371.239 240.675 371.239 240.675C371.239 240.675 367.547 234.5 367.021 234.142C366.495 233.783 368.43 204.301 368.43 204.301L362.624 185.445C362.624 185.445 362.624 166.183 365.085 162.487C367.547 158.791 375.288 151.88 376.294 153.728Z" fill="#00A6FF" stroke="#181818" stroke-miterlimit="10"/>
<path d="M364.521 189.423C364.521 189.423 372.845 187.283 377.486 182.625" stroke="#181818" stroke-miterlimit="10"/>
<path d="M368.355 196.023C368.355 196.023 374.744 200.096 381.32 200.096" stroke="#181818" stroke-miterlimit="10"/>
<path d="M378.069 226.514C374.537 233.953 371.239 240.657 371.239 240.657C371.239 240.657 367.547 234.481 367.021 234.123C366.824 234 366.965 229.974 367.209 224.93C368.741 226.088 370.539 226.84 372.437 227.117C374.335 227.393 376.272 227.186 378.069 226.514Z" fill="white" stroke="#181818" stroke-miterlimit="10"/>
<path d="M361.243 208.893C361.243 208.893 369.455 230.125 372.649 238.431C375.843 246.738 376.322 291.088 376.322 291.088L375.383 307.71C375.383 307.71 356.941 316.394 335.858 315.451C322.572 314.748 309.423 312.402 296.71 308.465C296.71 308.465 296.804 269.978 301.511 257.137C306.218 244.296 309.6 231.256 309.6 231.256L311.178 211.353L361.243 208.893Z" fill="#181818" stroke="#181818" stroke-miterlimit="10"/>
<path d="M371.606 164.127C371.277 164.966 363.151 191.582 363.151 191.582C363.151 191.582 361.215 197.946 361.037 198.644C361.039 201.891 361.214 205.136 361.563 208.365C361.741 209.072 363.038 207.186 362.502 209.656C361.967 212.127 359.684 212.306 358.284 213.013C350.823 215.925 342.887 217.421 334.881 217.425C326.864 217.164 318.875 216.342 310.971 214.965C310.054 213.333 309.289 211.619 308.688 209.845C308.331 208.252 309.327 204.659 309.327 204.659L304.63 166.654C304.63 166.654 285.041 140.67 282.373 138.831C279.705 136.993 276.182 134.296 275.177 133.457C273.955 132.239 273.041 130.745 272.509 129.101C271.842 127.216 254.02 94.6881 254.02 94.6881C254.02 94.6881 258.529 89.8231 259.703 89.4931C260.971 89.2002 262.254 88.9767 263.546 88.8237L286.714 114.836C286.714 114.836 291.233 117.014 292.229 117.523C293.224 118.033 293.065 120.88 293.065 120.88L300.12 124.048L323.767 131.543L335.041 134.277C335.041 134.277 366.984 146.355 368.975 147.364C370.967 148.373 376.491 152.078 376.332 153.737C376.172 155.397 373.156 162.298 373.156 162.298" fill="#00A6FF"/>
<path d="M371.606 164.127C371.277 164.966 363.151 191.582 363.151 191.582C363.151 191.582 361.215 197.946 361.037 198.644C361.039 201.891 361.214 205.136 361.563 208.365C361.741 209.072 363.038 207.186 362.502 209.656C361.967 212.127 359.684 212.306 358.284 213.013C350.823 215.925 342.887 217.421 334.881 217.425C326.864 217.164 318.875 216.342 310.971 214.965C310.054 213.333 309.289 211.619 308.688 209.845C308.331 208.252 309.327 204.659 309.327 204.659L304.63 166.654C304.63 166.654 285.041 140.67 282.373 138.831C279.705 136.993 276.182 134.296 275.177 133.457C273.955 132.239 273.041 130.745 272.509 129.101C271.842 127.216 254.02 94.6881 254.02 94.6881C254.02 94.6881 258.529 89.8231 259.703 89.4931C260.971 89.2002 262.254 88.9767 263.546 88.8237L286.714 114.836C286.714 114.836 291.233 117.014 292.229 117.523C293.224 118.033 293.065 120.88 293.065 120.88L300.12 124.048L323.767 131.543L335.041 134.277C335.041 134.277 366.984 146.355 368.975 147.364C370.967 148.373 376.491 152.078 376.332 153.737C376.172 155.397 373.156 162.298 373.156 162.298" stroke="#181818" stroke-miterlimit="10"/>
<path d="M323.118 187.726C328.267 194.647 335.153 202.991 340.968 206.95" stroke="#181818" stroke-miterlimit="10"/>
<path d="M315.462 176.752C315.462 176.752 317.895 180.523 321.512 185.539" stroke="#181818" stroke-miterlimit="10"/>
<path d="M347.442 205.47C348.307 206.072 349.204 206.626 350.129 207.13" stroke="#181818" stroke-miterlimit="10"/>
<path d="M335.342 194.59C338.518 197.991 341.93 201.16 345.554 204.075" stroke="#181818" stroke-miterlimit="10"/>
<path d="M288.836 121.709C288.836 121.709 281.142 130.6 281.32 127.913C281.499 125.226 280.653 125.226 283.199 123.199" stroke="#181818" stroke-miterlimit="10"/>
<path d="M334.289 87.0511C334.289 87.0511 324.894 92.7081 324.105 94.4618C323.316 96.2154 322.912 100.675 321.916 101.674C320.92 102.674 315.124 104.079 315.34 105.446C315.556 106.813 317.736 111.103 317.736 111.103C317.736 111.103 317.341 124.529 317.341 125.528C317.341 126.527 318.534 127.131 319.737 127.329C320.939 127.527 323.73 128.338 323.73 128.338V131.543C323.73 131.543 331.518 134.145 332.316 134.145C333.115 134.145 338.301 134.541 338.301 134.541C338.301 134.541 348.88 127.536 352.271 117.514C355.663 107.492 352.271 99.685 348.513 95.0746C344.755 90.4642 334.289 87.0511 334.289 87.0511Z" fill="white" stroke="#181818" stroke-miterlimit="10"/>
<path d="M335.886 114.082C335.886 114.082 342.463 108.67 344.069 113.083C345.676 117.495 344.276 119.89 342.275 120.691C340.274 121.493 335.492 123.095 335.492 123.095C335.492 123.095 330.898 133.712 330.494 138.124C330.09 142.537 327.299 145.94 328.699 148.938C330.099 151.937 332.091 153.153 341.852 154.152C351.613 155.152 362.775 153.709 369.764 150.701C376.754 147.694 375.787 137.125 374.387 134.673C372.987 132.222 366.401 123.85 366.598 119.447C366.796 115.044 372.79 108.246 368.543 96.0364C364.785 85.2504 346.437 78.5752 341.448 79.1692C336.46 79.7632 332.053 79.1692 332.053 82.3748C331.835 86.311 333.122 90.1824 335.652 93.1984C339.043 97.6014 337.051 101.014 336.253 101.816C335.454 102.617 332.852 105.219 333.256 108.416C333.585 110.515 334.497 112.479 335.886 114.082Z" fill="#181818" stroke="#181818" stroke-miterlimit="10"/>
<path d="M324.349 115.289C324.349 115.289 323.654 118.296 319.041 117.372" stroke="#181818" stroke-miterlimit="10"/>
<path d="M327.346 99.3173C327.203 98.6906 326.851 98.1315 326.349 97.7322C325.847 97.3329 325.225 97.1171 324.584 97.1205" stroke="#181818" stroke-miterlimit="10"/>
<path d="M323.382 101.901C322.931 102.843 322.837 103.692 323.184 103.871C323.532 104.05 324.171 103.437 324.622 102.523C325.073 101.608 325.167 100.722 324.828 100.552C324.49 100.383 323.842 100.986 323.382 101.901Z" fill="#181818"/>
<path d="M132.721 92.5667C132.721 92.5667 133.238 91.5201 131.688 89.9644C130.138 88.4088 123.232 84.0624 121.147 82.6764C119.061 81.2904 116.656 76.9534 108.36 81.9881C100.065 87.0228 94.5403 96.0268 93.5069 102.447C92.4735 108.868 96.6166 116.665 104.386 121.002C108.66 123.493 113.344 125.195 118.215 126.028L119.08 127.583L143.61 123.944C143.61 123.944 147.584 119.786 147.067 117.344C146.55 114.902 142.229 106.775 142.229 106.775C142.229 106.775 144.991 102.608 144.108 101.392C143.225 100.175 132.721 92.5667 132.721 92.5667Z" fill="white" stroke="#181818" stroke-miterlimit="10"/>
<path d="M122.528 113.545C122.528 113.545 119.08 114.761 117.689 115.279C116.299 115.798 112.334 114.582 110.606 111.112C108.877 107.643 111.47 104.003 113.424 103.664C115.378 103.324 116.872 104.531 117.915 104.352C118.958 104.173 118.948 102.966 119.127 101.929C119.305 100.892 116.308 98.978 116.308 98.978C116.308 98.978 120.282 94.641 121.325 92.7364C122.368 90.8319 114.241 88.9651 113.894 87.3623C113.546 85.7595 121.147 82.6482 121.147 82.6482C119.08 81.2622 116.656 76.9252 108.36 81.9599C100.065 86.9946 94.5403 95.9986 93.5069 102.419C92.4735 108.84 96.6166 116.637 104.386 120.974C108.095 123.074 112.08 124.639 116.224 125.622L118.037 124.613C118.037 124.613 118.901 123.567 120.978 120.446C122.226 118.375 122.77 115.953 122.528 113.545Z" fill="#181818" stroke="#181818" stroke-miterlimit="10"/>
<path d="M131.529 91.8691C131.529 91.8691 129.283 91.5202 127.555 94.641" stroke="#181818" stroke-miterlimit="10"/>
<path d="M142.229 110.245C142.229 110.245 138.941 111.631 134.629 107.822" stroke="#181818" stroke-miterlimit="10"/>
<path d="M132.468 96.9508C133.069 98.1482 133.144 99.3267 132.628 99.5813C132.111 99.8359 131.218 99.0816 130.617 97.8842C130.016 96.6868 129.941 95.5083 130.457 95.2537C130.974 94.9992 131.838 95.7534 132.468 96.9508Z" fill="#181818"/>
<path d="M139.984 125.509C139.984 125.509 119.418 123.774 118.216 126.028C117.013 128.281 117.173 132.788 117.173 132.788L139.805 127.583L139.984 125.509Z" fill="#00A6FF" stroke="#181818" stroke-miterlimit="10"/>
<path d="M173.439 115.76C173.439 115.76 215.453 69.7408 215.716 69.0714C215.98 68.402 217.248 53.5431 217.37 52.506C217.492 51.4689 217.163 49.8661 218.403 48.2727C219.644 46.6793 222.002 42.9457 222.002 42.9457C222.75 41.3324 223.581 39.7589 224.491 38.2316C225.111 37.4302 226.652 36.2139 227.648 35.1202C228.644 34.0266 230.156 33.1497 230.946 33.772C231.735 34.3943 232.12 36.9965 232.12 36.9965C232.12 36.9965 233.172 36.9965 233.492 38.6181C233.811 40.2398 231.237 48.6027 231.115 49.4701C230.993 50.3375 230.232 58.2666 229.311 63.0468C228.39 67.8269 226.943 71.1362 225.506 72.8899C224.069 74.6435 208.868 96.8848 205.053 101.175C201.239 105.465 186.113 131.835 186.113 131.835L173.439 115.76Z" fill="white" stroke="#181818" stroke-miterlimit="10"/>
<path d="M220.968 44.8408C220.968 44.8408 218.872 50.7241 218.769 51.5349C218.666 52.3457 218.14 56.777 218.14 56.777" stroke="#181818" stroke-miterlimit="10"/>
<path d="M225.534 37.3737C225.534 37.3737 222.819 44.9823 222.518 46.1797C222.217 47.377 221.936 49.0081 221.936 49.0081" stroke="#181818" stroke-miterlimit="10"/>
<path d="M232.11 36.9493C231.531 38.7837 230.851 40.5842 230.071 42.3423C229.062 44.9317 228.276 47.6035 227.723 50.3281" stroke="#181818" stroke-miterlimit="10"/>
<path d="M229.348 34.1586C229.348 34.1586 226.163 42.2857 225.712 44.03C225.261 45.7742 224.641 48.8101 224.435 49.1872" stroke="#181818" stroke-miterlimit="10"/>
<path d="M162.315 144.347L187.888 215.078L182.139 223.148L176.098 211.815L171.344 187.66L162.315 144.347Z" fill="#181818" stroke="#181818" stroke-miterlimit="10"/>
<path d="M107.158 196.513C107.158 196.513 104.612 206.705 106.369 208.072C108.126 209.439 124.135 214.342 124.529 213.729C124.924 213.116 124.727 206.677 124.332 204.914C123.938 203.151 121.016 200.794 121.016 200.794L107.158 196.513Z" fill="white" stroke="#181818" stroke-miterlimit="10"/>
<path d="M111.639 166.937C111.639 166.937 106.566 192.799 106.942 193.77C107.318 194.741 120.405 196.325 120.405 196.325L111.639 166.937Z" fill="#00A6FF" stroke="#181818" stroke-miterlimit="10"/>
<path d="M105.984 188.876C105.984 188.876 104.425 197.107 106.369 198.088C108.314 199.068 120.039 202.199 121.016 200.822C121.993 199.446 120.622 193.581 120.622 193.581C120.622 193.581 106.961 187.311 105.984 188.876Z" fill="#00A6FF" stroke="#181818" stroke-miterlimit="10"/>
<path d="M160.362 382.033C160.362 382.033 166.722 386.813 168.535 387.275C170.349 387.737 176.709 389.774 177.385 390.915C178.062 392.056 177.385 395.704 176.446 397.071C175.506 398.438 162.598 400.484 156.463 399.796C150.328 399.108 136.94 402.304 135.587 397.976C134.235 393.649 136.527 387.275 136.527 387.275L160.362 382.033Z" fill="white" stroke="#181818" stroke-miterlimit="10"/>
<path d="M172.622 395.931C170.123 396.609 160.136 397.062 148.336 397.524C140.821 397.816 136.987 396.345 135.184 395.252C135.205 396.175 135.351 397.092 135.616 397.976C136.969 402.304 150.366 399.117 156.491 399.796C162.617 400.475 175.563 398.429 176.474 397.062C176.915 396.317 177.232 395.505 177.414 394.658L172.622 395.931Z" fill="white" stroke="#181818" stroke-miterlimit="10"/>
<path d="M77.038 368.362C77.038 368.362 71.5889 379.752 72.5002 382.26C73.4115 384.767 76.1267 385.22 78.6257 386.135C81.1247 387.049 87.4757 386.813 89.2983 387.954C91.1209 389.095 99.736 392.97 103.823 393.611C107.91 394.252 112.222 392.47 112.673 390.651C113.124 388.831 106.096 383.363 103.372 381.543C100.647 379.723 96.3351 373.34 96.3351 373.34L77.038 368.362Z" fill="white" stroke="#181818" stroke-miterlimit="10"/>
<path d="M86.1323 384.994C81.5046 383.697 76.9769 382.065 72.5849 380.11C72.3874 380.81 72.3648 381.549 72.5191 382.26C73.4586 384.768 76.1455 385.22 78.6446 386.135C81.1436 387.049 87.4945 386.813 89.3172 387.954C91.1398 389.095 99.7549 392.97 103.842 393.611C107.928 394.252 112.241 392.47 112.692 390.651C112.713 390.109 112.52 389.581 112.156 389.18C110.277 390.33 107.675 391.66 105.655 391.792C102.028 392.056 91.8068 386.361 86.1323 384.994Z" fill="white" stroke="#181818" stroke-miterlimit="10"/>
<path d="M122.012 223.987C122.012 223.987 117.004 243.325 116.779 248.793C116.657 252.437 116.733 256.085 117.004 259.72C117.004 259.72 113.378 262.455 114.054 264.736C114.467 266.11 115.078 267.415 115.867 268.611C115.867 268.611 107.243 301.61 106.106 303.232C104.969 304.853 92.9532 323.512 89.7683 329.886C86.5835 336.259 79.0957 362.884 79.0957 362.884C78.2177 363.768 77.5916 364.872 77.2825 366.081C77.057 367.674 76.5967 370.408 76.5967 370.408C77.5831 372.054 78.9383 373.445 80.5544 374.473C82.1706 375.501 84.0033 376.136 85.907 376.329C92.7183 377.272 96.3541 375.867 96.3541 375.867C97.1209 374.69 97.6595 373.379 97.9419 372.002C98.3928 369.72 99.0693 366.081 99.0693 366.081L111.799 343.99L132.91 305.051L139.261 286.836C139.261 286.836 142.211 313.716 141.985 314.847C141.76 315.979 135.86 336.476 135.86 346.498C135.86 356.52 136.536 377.479 136.536 377.479C136.536 377.479 134.723 380.666 135.174 382.486L135.634 384.305L136.574 387.275C136.574 387.275 145.424 387.04 149.51 386.333C153.597 385.625 160.409 382.005 160.409 382.005C160.409 382.005 161.094 378.818 160.409 377.677C159.632 376.637 159.02 375.483 158.595 374.255C158.009 371.945 157.932 369.536 158.37 367.193C159.046 364.006 166.083 316.186 168.808 304.118C171.532 292.05 172.171 253.121 171.927 246.078C171.817 242.031 171.44 237.997 170.799 234L171.25 225.797C171.25 225.797 158.539 220.329 147.641 219.65C136.743 218.971 123.581 221.017 123.581 221.017L122.012 223.987Z" fill="#181818" stroke="#181818" stroke-miterlimit="10"/>
<path d="M126.314 260.861L134.713 274.532L138.34 285.233" stroke="#393939" stroke-miterlimit="10"/>
<path d="M141.863 260.503C143.451 259.089 145.02 257.571 145.621 256.986C146.749 255.855 148.346 240.129 148.571 239.45" stroke="#393939" stroke-miterlimit="10"/>
<path d="M125.178 241.496C125.178 241.496 125.178 253.347 126.54 255.855C127.902 258.363 136.752 263.822 138.114 263.397" stroke="#393939" stroke-miterlimit="10"/>
<path d="M127.677 236.263C127.677 236.263 139.89 234.208 147.876 236.942" stroke="#181818" stroke-miterlimit="10"/>
<path d="M158.003 296.783C158.304 303.468 158.576 312.877 157.862 315.309C157.194 317.494 156.362 319.625 155.372 321.683C154.687 323.512 155.598 325.558 155.137 326.699C154.677 327.84 153.324 347.865 152.187 353.098C151.051 358.331 150.825 369.729 150.825 369.729" stroke="#393939" stroke-miterlimit="10"/>
<path d="M161.95 229.201C161.95 229.201 160.362 249.246 159.685 255.6C159.009 261.955 156.735 271.779 156.961 275.88C157.186 279.982 157.637 289.778 157.637 289.778C157.637 289.778 157.694 290.655 157.778 292.097" stroke="#393939" stroke-miterlimit="10"/>
<path d="M151.258 372.69V377.932C151.74 378.054 152.153 378.363 152.408 378.791C152.664 379.218 152.74 379.73 152.62 380.214C152.235 381.441 151.528 382.542 150.572 383.4" stroke="#181818" stroke-miterlimit="10"/>
<path d="M117.174 132.788C117.174 132.788 109.742 140.934 107.844 150.296C105.947 159.658 112.335 172.32 112.335 172.32L123.074 212.023C123.074 212.023 119.964 214.455 119.795 216.53C119.626 218.604 120.49 223.469 122.04 223.987C123.59 224.506 147.782 224.336 147.782 224.336C147.782 224.336 171.796 228.673 172.322 228.673C172.848 228.673 175.6 226.241 175.6 223.469C175.6 220.697 175.084 216.709 174.905 214.983C174.727 213.258 167.821 167.644 167.136 164.523C166.45 161.402 166.196 149.08 166.196 149.08L180.674 138.303L183.145 135.116L172.077 117.203C172.077 117.203 154.349 121.559 153.485 122.247C152.621 122.935 117.174 132.788 117.174 132.788Z" fill="#00A6FF" stroke="#181818" stroke-miterlimit="10"/>
<path d="M167.962 119.296C167.962 119.296 179.668 140.623 180.373 140.538C181.077 140.453 187.569 135.644 188.039 134.654C188.509 133.664 187.729 131.468 187.729 131.468C187.729 131.468 175.563 115.496 174.463 114.497C174.287 114.296 174.07 114.135 173.827 114.025C173.584 113.915 173.321 113.858 173.054 113.858C172.788 113.858 172.524 113.915 172.281 114.025C172.038 114.135 171.821 114.296 171.645 114.497C171.25 115.147 167.229 115.704 167.962 119.296Z" fill="#00A6FF" stroke="#181818" stroke-miterlimit="10"/>
<path d="M166.168 149.07L143.413 166.117" stroke="#181818" stroke-miterlimit="10"/>
<path d="M139.542 191.733C138.452 193.668 137.24 195.532 135.916 197.315" stroke="#181818" stroke-miterlimit="10"/>
<path d="M151.258 164.146C148.711 172.733 145.302 181.038 141.083 188.933" stroke="#181818" stroke-miterlimit="10"/>
<path d="M143.009 192.572C143.009 192.572 134.601 205.225 130.664 208.647" stroke="#181818" stroke-miterlimit="10"/>
</g>
<defs>
<clipPath id="clip0_302_3018">
<rect width="456" height="406" fill="white"/>
</clipPath>
</defs>
</svg>
