<svg width="100" height="103" viewBox="0 0 100 103" fill="none" xmlns="http://www.w3.org/2000/svg">
<g clip-path="url(#clip0_302_2358)">
<path fill-rule="evenodd" clip-rule="evenodd" d="M47.623 44.8435C64.5709 40.6394 77.9911 51.3832 81.9789 56.2879C69.4022 35.3454 68.1752 22.4217 47.623 44.8435Z" fill="url(#paint0_linear_302_2358)"/>
<path d="M80.1379 70.7687L85.6594 66.2532H89.5704L82.4385 72.17L89.9538 78.4762H85.9661L80.1379 73.5714V78.4762H77.3772V66.2532H80.1379V70.7687ZM9.279 77.4641L15.1839 66.2532H17.4845L23.9262 78.4762H20.3986L19.0183 75.9848H13.6502L12.3465 78.4762H8.74219L9.279 77.4641ZM16.3342 69.6009L14.3403 73.805H18.4815L16.3342 69.6009ZM49.7698 78.4762H48.6195L44.7084 70.9244V78.4762H42.0244V66.2532H45.1686L49.6164 74.8949L53.9876 66.2532H57.1318V78.4762H54.4477V70.9244L50.5367 78.4762H49.7698Z" fill="url(#paint1_linear_302_2358)"/>
<path d="M16.411 89.2978L17.8681 86.573H18.4816L20.1687 89.6093H19.3252L18.7883 88.7529H17.5613L17.1012 89.6093H16.2577L16.411 89.2978ZM34.8926 93.3462H37.2699V96.4603H36.5798V93.969H35.5061V95.9932C35.4981 96.0523 35.4711 96.107 35.4295 96.1489C35.3528 96.2268 35.3528 96.3046 35.2761 96.3046C35.1994 96.3825 35.1227 96.4603 35.046 96.4603H34.2791V95.8375H34.7393V95.7597L34.816 95.6818V93.3462H34.8926ZM74.4632 99.1852H75.6902V99.4966H74.4632V99.1852ZM76.3804 102.922H75.8436V101.132L74.3865 102.922H73.6963V99.8859H74.4632V101.677L75.9969 99.8859H76.6104V102.922H76.3804ZM23.3896 100.82L24.4632 99.8859H25.5368L23.9264 101.365L25.6902 102.922H24.5399L23.3896 101.832V102.922H22.546V99.8859H23.3896V100.82ZM30.9816 99.808C31.135 99.808 31.365 99.808 31.5184 99.8859C31.6718 99.8859 31.8252 99.9637 31.9785 100.042C32.0576 100.04 32.1354 100.061 32.2032 100.103C32.271 100.144 32.326 100.204 32.362 100.275C32.499 100.336 32.6084 100.448 32.6687 100.587C32.7391 100.623 32.7981 100.679 32.8387 100.748C32.8794 100.817 32.9002 100.896 32.8988 100.976C32.9608 101.095 32.9874 101.231 32.9755 101.365C32.9876 101.525 32.9613 101.685 32.8988 101.832C32.8988 101.988 32.8221 102.066 32.6687 102.221C32.592 102.299 32.5153 102.455 32.362 102.533C32.245 102.628 32.116 102.706 31.9785 102.766C31.8252 102.844 31.6718 102.922 31.5184 102.922C31.3735 102.986 31.2156 103.012 31.0583 103C30.9049 103 30.6748 103 30.5215 102.922C30.3681 102.922 30.2147 102.844 30.0614 102.766C29.908 102.689 29.8313 102.611 29.6779 102.533L29.3712 102.221C29.2945 102.066 29.2178 101.988 29.1411 101.832C29.1411 101.677 29.0644 101.521 29.0644 101.365C29.0644 101.287 29.1411 101.132 29.1411 100.976C29.2178 100.82 29.2945 100.742 29.3712 100.587C29.4315 100.448 29.5409 100.336 29.6779 100.275C29.8313 100.197 29.908 100.119 30.0614 100.042C30.2147 99.9637 30.3681 99.8859 30.5215 99.8859C30.6664 99.8224 30.8243 99.7957 30.9816 99.808ZM31.0583 100.509C30.9049 100.509 30.8282 100.509 30.7515 100.587C30.5982 100.587 30.5215 100.587 30.4448 100.664C30.3681 100.664 30.2914 100.742 30.2147 100.82C30.138 100.82 30.0614 100.898 29.9847 100.976C29.9847 101.054 29.908 101.132 29.908 101.209V101.599C29.908 101.677 29.9847 101.754 29.9847 101.832C30.0614 101.91 30.138 101.91 30.2147 101.988C30.2914 102.066 30.3681 102.066 30.4448 102.144C30.5215 102.221 30.5982 102.221 30.7515 102.221C30.8282 102.299 30.9049 102.299 31.0583 102.299C31.0999 102.305 31.1422 102.3 31.182 102.287C31.2218 102.273 31.2581 102.251 31.2883 102.221H31.5184C31.5582 102.177 31.6129 102.149 31.6718 102.144C31.7485 102.066 31.8252 102.066 31.9018 101.988L32.0552 101.832C32.0608 101.772 32.0882 101.717 32.1319 101.677C32.1375 101.617 32.1648 101.561 32.2086 101.521V101.365C32.2086 101.287 32.2086 101.287 32.1319 101.209C32.1371 101.167 32.1329 101.124 32.1196 101.084C32.1063 101.043 32.0843 101.007 32.0552 100.976C31.9785 100.898 31.9785 100.82 31.9018 100.82C31.8653 100.773 31.8189 100.734 31.7658 100.707C31.7127 100.68 31.6544 100.666 31.5951 100.664C31.5649 100.635 31.5286 100.613 31.4887 100.599C31.4489 100.586 31.4067 100.581 31.365 100.587C31.2719 100.532 31.1657 100.505 31.0583 100.509ZM38.4202 102.922H38.1135L37.1933 101.287V102.922H36.4264V99.8859H37.2699L38.3436 101.91L39.4172 99.8859H40.2607V102.922H39.4939V101.287L38.6503 102.922H38.4202ZM44.5552 102.689V99.8859H47.316V102.922H46.5491V100.587H45.3221V102.922H44.5552V102.689ZM51.8405 102.611L53.2976 99.8859H53.911L55.5982 102.922H54.6779L54.2178 102.066H52.9908L52.5307 102.922H51.6871L51.8405 102.611ZM53.6043 100.898L53.3742 101.365H53.911L53.6043 100.898ZM59.2791 102.689V99.8859H60.046V100.976H61.273V99.8859H62.0399V102.922H61.273V101.677H60.046V102.922H59.2791V102.689ZM69.0951 102.922H68.4816V101.132L67.0245 102.922H66.3344V99.8859H67.1779V101.677L68.635 99.8859H69.3252V102.922H69.0951ZM1.99387 96.4603H1.68712L0.766871 94.7476V96.4603H0V93.3462H0.920245L1.91718 95.3704L2.9908 93.3462H3.83436V96.4603H3.06748V94.7476L2.22393 96.4603H1.99387ZM8.05215 96.2268V93.3462H10.2761V94.0469H8.81902V94.514H10.1994V95.2147H8.81902V95.7597H10.2761V96.4603H8.05215V96.2268ZM14.8006 96.2268V94.0469H14.1104V93.3462H16.3344V94.0469H15.6442V96.4603H14.8006V96.2268ZM20.2454 96.2268V93.3462H21.8558C21.886 93.3758 21.9224 93.3981 21.9622 93.4116C22.002 93.4251 22.0443 93.4293 22.0859 93.4241C22.1626 93.4241 22.2393 93.5019 22.316 93.5019C22.3573 93.5442 22.4112 93.5716 22.4693 93.5798C22.4693 93.6576 22.546 93.6576 22.6227 93.7355C22.6644 93.7774 22.6913 93.8322 22.6994 93.8912C22.7411 93.9331 22.768 93.9879 22.7761 94.0469C22.8178 94.0889 22.8447 94.1436 22.8528 94.2026V94.5919C22.7761 94.6697 22.7761 94.7476 22.6994 94.8254C22.6967 94.8658 22.6797 94.9039 22.6515 94.9325C22.6233 94.9611 22.5858 94.9784 22.546 94.9811C22.5433 95.0215 22.5263 95.0596 22.4981 95.0882C22.4699 95.1168 22.4324 95.1341 22.3926 95.1368C22.316 95.2147 22.316 95.2147 22.2393 95.2147C22.1626 95.2925 22.1626 95.2925 22.0859 95.2925H21.9325C21.9325 95.3704 21.8558 95.3704 21.7791 95.3704H21.0123V96.4603H20.2454V96.2268ZM21.0123 94.6697H21.7025C21.7791 94.6697 21.7791 94.6697 21.8558 94.5919H21.9325L22.0092 94.514C22.0092 94.4934 22.0173 94.4736 22.0317 94.459C22.046 94.4444 22.0656 94.4362 22.0859 94.4362V94.2805L22.0092 94.2026C22.0092 94.182 22.0011 94.1621 21.9867 94.1475C21.9724 94.1329 21.9529 94.1247 21.9325 94.1247C21.9122 94.1247 21.8927 94.1165 21.8783 94.1019C21.8639 94.0873 21.8558 94.0675 21.8558 94.0469H21.0123V94.6697ZM28.6043 93.2684C28.7577 93.2684 28.911 93.3462 29.0644 93.3462C29.2535 93.3508 29.4383 93.4044 29.6012 93.5019C29.7546 93.5798 29.8313 93.6576 29.9847 93.7355L30.2914 94.0469C30.3681 94.2026 30.4448 94.2805 30.5215 94.4362C30.5215 94.5919 30.5982 94.7476 30.5982 94.9033C30.5982 95.059 30.5215 95.1368 30.5215 95.2925C30.4623 95.4321 30.3849 95.5631 30.2914 95.6818C30.2311 95.8209 30.1217 95.932 29.9847 95.9932C29.8313 96.1489 29.7546 96.2268 29.6012 96.3046C29.4479 96.3046 29.2945 96.3825 29.1411 96.4603H28.1442C27.9908 96.3825 27.8374 96.3046 27.684 96.3046C27.5307 96.2268 27.3773 96.1489 27.3006 95.9932C27.1636 95.932 27.0542 95.8209 26.9939 95.6818C26.8405 95.604 26.8405 95.4483 26.7638 95.2925C26.6871 95.2147 26.6871 95.059 26.6871 94.9033C26.675 94.7436 26.7013 94.5832 26.7638 94.4362C26.8405 94.3583 26.8405 94.2026 26.9939 94.0469C27.0706 93.969 27.1472 93.8133 27.3006 93.7355C27.4176 93.6406 27.5465 93.562 27.684 93.5019C27.8374 93.4241 27.9908 93.3462 28.1442 93.3462C28.2975 93.3462 28.4509 93.2684 28.6043 93.2684ZM28.6043 94.0469H28.2975C28.2209 94.0469 28.1442 94.1247 28.0675 94.1247C27.9141 94.2026 27.8374 94.2026 27.7607 94.2805C27.684 94.3583 27.684 94.4362 27.6074 94.514C27.5307 94.514 27.5307 94.5919 27.5307 94.6697C27.4809 94.7371 27.454 94.8191 27.454 94.9033C27.454 94.9875 27.4809 95.0695 27.5307 95.1368C27.5363 95.1966 27.5636 95.2521 27.6074 95.2925C27.684 95.3704 27.684 95.4483 27.7607 95.5261C27.8374 95.5261 27.9141 95.604 28.0675 95.604C28.1442 95.6818 28.2209 95.6818 28.2975 95.7597H28.911C28.9692 95.7515 29.0231 95.7241 29.0644 95.6818C29.1411 95.6818 29.2178 95.604 29.2945 95.604C29.3526 95.5958 29.4065 95.5684 29.4479 95.5261L29.6012 95.3704C29.6779 95.2925 29.6779 95.2925 29.6779 95.2147C29.7546 95.1368 29.7546 95.1368 29.7546 95.059C29.7627 95 29.7896 94.9452 29.8313 94.9033C29.8313 94.8254 29.7546 94.7476 29.7546 94.6697C29.7546 94.5919 29.6779 94.514 29.6779 94.4362C29.6012 94.4362 29.5245 94.3583 29.4479 94.2805C29.3712 94.2026 29.2945 94.2026 29.2178 94.1247C29.1411 94.1247 29.0644 94.0469 28.911 94.0469H28.6043ZM43.3282 93.2684C43.4816 93.2684 43.635 93.3462 43.7883 93.3462C43.9417 93.3462 44.1718 93.4241 44.2485 93.5019L44.7086 93.7355L45.0153 94.0469C45.092 94.2026 45.1687 94.2805 45.2454 94.4362C45.2454 94.5919 45.3221 94.7476 45.3221 94.9033C45.3221 95.059 45.2454 95.1368 45.2454 95.2925C45.1862 95.4321 45.1088 95.5631 45.0153 95.6818C44.9387 95.8375 44.7853 95.9154 44.7086 95.9932C44.5552 96.1489 44.4785 96.2268 44.3252 96.3046C44.1718 96.3046 44.0184 96.3825 43.865 96.4603H42.8681C42.7147 96.3825 42.5614 96.3046 42.408 96.3046C42.2546 96.2268 42.1012 96.1489 42.0245 95.9932C41.8876 95.932 41.7781 95.8209 41.7178 95.6818C41.6474 95.6453 41.5884 95.5895 41.5478 95.5207C41.5071 95.4519 41.4863 95.3728 41.4877 95.2925C41.411 95.2147 41.411 95.059 41.411 94.9033C41.3989 94.7436 41.4252 94.5832 41.4877 94.4362C41.4877 94.3583 41.5644 94.2026 41.6411 94.0469C41.7945 93.969 41.8712 93.8133 42.0245 93.7355C42.1415 93.6406 42.2705 93.562 42.408 93.5019C42.5614 93.4241 42.638 93.3462 42.8681 93.3462C43.0215 93.3462 43.1748 93.2684 43.3282 93.2684ZM43.3282 94.0469H43.0215C42.9448 94.0469 42.8681 94.1247 42.7147 94.1247C42.638 94.2026 42.5614 94.2026 42.4847 94.2805C42.408 94.3583 42.408 94.4362 42.3313 94.514C42.2546 94.514 42.2546 94.5919 42.1779 94.6697V95.1368C42.2546 95.1368 42.2546 95.2147 42.3313 95.2925C42.408 95.3704 42.408 95.4483 42.4847 95.5261C42.5614 95.5261 42.638 95.604 42.7147 95.604C42.8681 95.6818 42.9448 95.6818 43.0215 95.7597H43.5583C43.635 95.7597 43.7117 95.6818 43.7883 95.6818C43.865 95.6818 43.9417 95.604 44.0184 95.604C44.0766 95.5958 44.1305 95.5684 44.1718 95.5261L44.3252 95.3704C44.4018 95.2925 44.4018 95.2925 44.4018 95.2147C44.4785 95.1368 44.4785 95.1368 44.4785 95.059V94.6697C44.4785 94.5919 44.4018 94.514 44.4018 94.4362C44.3252 94.4362 44.2485 94.3583 44.1718 94.2805C44.0951 94.2026 44.0184 94.2026 43.9417 94.1247C43.865 94.1247 43.7883 94.0469 43.635 94.0469H43.3282ZM49.9233 96.4603H49.3098V93.3462H51.4571V94.0469H50.1534V96.4603H49.9233ZM58.0522 96.4603H57.5153V94.5919L55.9816 96.4603H55.3681V93.3462H56.135V95.1368L57.592 93.3462H58.2822V96.4603H58.0522ZM64.8773 96.4603H64.3405V95.4483C64.2638 95.5261 64.1871 95.5261 64.0337 95.5261C63.9571 95.604 63.8037 95.604 63.727 95.604C63.5736 95.604 63.4202 95.5261 63.2669 95.5261C63.1294 95.466 63.0004 95.3874 62.8834 95.2925C62.8068 95.2925 62.7301 95.2147 62.6534 95.1368C62.6534 95.059 62.5767 94.9811 62.5767 94.9033C62.5476 94.8726 62.5256 94.8357 62.5123 94.7953C62.499 94.7549 62.4948 94.712 62.5 94.6697C62.5 94.5919 62.4233 94.4362 62.4233 94.3583V93.3462H63.2669V94.6697C63.2872 94.6697 63.3067 94.6779 63.3211 94.6925C63.3355 94.7071 63.3436 94.7269 63.3436 94.7476L63.4202 94.8254H63.9571C63.9987 94.8307 64.041 94.8264 64.0808 94.8129C64.1206 94.7995 64.1569 94.7771 64.1871 94.7476C64.1871 94.7269 64.1952 94.7071 64.2096 94.6925C64.224 94.6779 64.2435 94.6697 64.2638 94.6697V94.5919C64.3405 94.5919 64.3405 94.514 64.3405 94.4362V93.3462H65.1074V96.4603H64.8773ZM69.3252 96.2268V93.3462H71.5491V94.0469H70.092V94.514H71.4724V95.2147H70.092V95.7597H71.5491V96.4603H69.3252V96.2268ZM78.911 94.4362H78.3742C78.3662 94.3771 78.3392 94.3224 78.2975 94.2805C78.2772 94.2805 78.2577 94.2723 78.2433 94.2577C78.2289 94.2431 78.2209 94.2232 78.2209 94.2026H78.1442C78.1028 94.1603 78.049 94.1329 77.9908 94.1247C77.9495 94.0824 77.8956 94.0551 77.8374 94.0469H77.1472C77.0706 94.0469 76.9172 94.1247 76.8405 94.1247C76.7638 94.2026 76.6871 94.2026 76.6104 94.2805L76.4571 94.4362C76.3804 94.514 76.3804 94.5919 76.3037 94.6697V95.059C76.3804 95.1368 76.3804 95.2147 76.4571 95.2925C76.4597 95.3329 76.4768 95.371 76.505 95.3996C76.5332 95.4282 76.5706 95.4455 76.6104 95.4483C76.6871 95.5261 76.7638 95.604 76.8405 95.604C76.9172 95.6818 77.0706 95.6818 77.1472 95.7597H77.6841C77.7772 95.7054 77.8834 95.6784 77.9908 95.6818C78.0675 95.604 78.0675 95.604 78.1442 95.604C78.1442 95.5833 78.1523 95.5635 78.1666 95.5489C78.181 95.5343 78.2005 95.5261 78.2209 95.5261L78.2975 95.4483C78.3389 95.4059 78.3928 95.3786 78.4509 95.3704V95.2925H79.3712L79.1411 95.6818C79.0644 95.6818 79.0644 95.7597 78.9877 95.7597C78.9877 95.8375 78.9877 95.8375 78.911 95.9154C78.8344 95.9154 78.7577 95.9932 78.681 96.0711C78.5276 96.2268 78.2975 96.3046 78.0675 96.3825C77.9141 96.4603 77.6841 96.4603 77.454 96.4603H76.9172C76.7638 96.3825 76.6104 96.3046 76.4571 96.3046C76.3804 96.2268 76.227 96.1489 76.0736 95.9932C75.9969 95.9154 75.8436 95.8375 75.7669 95.6818C75.6709 95.5753 75.6164 95.4369 75.6135 95.2925C75.5515 95.173 75.5249 95.0378 75.5368 94.9033C75.5247 94.7436 75.551 94.5832 75.6135 94.4362C75.6135 94.2805 75.6902 94.2026 75.7669 94.0469L76.0736 93.7355C76.2111 93.6754 76.3401 93.5968 76.4571 93.5019C76.6104 93.4241 76.7638 93.3462 76.9172 93.3462C77.0706 93.3462 77.3006 93.2684 77.454 93.2684C77.6074 93.2684 77.7607 93.3462 77.9908 93.3462C78.1442 93.4241 78.2975 93.4241 78.4509 93.5019V93.5798C78.5102 93.5809 78.5686 93.5955 78.6216 93.6224C78.6747 93.6494 78.7212 93.688 78.7577 93.7355C78.7975 93.7382 78.8349 93.7555 78.8631 93.7841C78.8913 93.8128 78.9084 93.8508 78.911 93.8912C78.9877 93.8912 78.9877 93.969 79.0644 93.969C79.0644 94.0469 79.0644 94.0469 79.1411 94.1247L79.2945 94.4362H78.911ZM83.4356 94.3583L84.5859 93.3462H85.6595L83.9724 94.8254L85.7362 96.4603H84.6626L83.4356 95.3704V96.4603H82.6687V93.3462H83.4356V94.3583ZM92.0245 96.4603H91.4877V94.5919L89.954 96.4603H89.3405V93.3462H90.1074V95.1368L91.5644 93.3462H92.2546V96.4603H92.0245ZM96.7025 96.0711L97.6994 94.8254L96.4724 93.3462H97.3926L98.1595 94.2805L98.9264 93.3462H99.9233L98.6963 94.8254L100 96.4603H99.0031L98.1595 95.4483L97.3926 96.4603H96.3957L96.7025 96.0711ZM18.1748 87.5851L17.9448 88.0522H18.4816L18.1748 87.5851ZM26.9172 87.6629H26.4571L26.3804 87.5851L26.3037 87.5072C26.227 87.5072 26.227 87.4294 26.1503 87.4294C26.109 87.387 26.0551 87.3597 25.9969 87.3515C25.9202 87.3515 25.9202 87.2737 25.8436 87.2737H25.6135C25.5737 87.2292 25.519 87.2015 25.4601 87.1958C25.3067 87.1958 25.2301 87.2737 25.1534 87.2737C25 87.2737 24.9233 87.2737 24.8466 87.3515C24.7699 87.4294 24.6933 87.4294 24.6166 87.5072C24.5399 87.5851 24.4632 87.5851 24.4632 87.6629C24.3865 87.7408 24.3098 87.8186 24.3098 87.8965V88.2857C24.3098 88.3636 24.3865 88.4415 24.4632 88.5193C24.4659 88.5597 24.4829 88.5977 24.5111 88.6264C24.5393 88.655 24.5768 88.6723 24.6166 88.675C24.6933 88.7529 24.7699 88.8307 24.8466 88.8307C24.9233 88.9086 25 88.9086 25.1534 88.9086C25.2301 88.9864 25.3067 88.9864 25.4601 88.9864H25.6902C25.7669 88.9086 25.9202 88.9086 25.9969 88.9086C25.9969 88.8879 26.005 88.8681 26.0194 88.8535C26.0338 88.8389 26.0533 88.8307 26.0736 88.8307C26.1503 88.8307 26.1503 88.7529 26.227 88.7529L26.3037 88.675L26.3804 88.5972L26.4571 88.5193H27.3773L27.0706 88.8307C27.0706 88.9086 27.0706 88.9864 26.9939 88.9864C26.9939 89.0643 26.9172 89.0643 26.9172 89.1421C26.8405 89.1421 26.8405 89.1421 26.8405 89.22C26.7638 89.22 26.7638 89.2978 26.6871 89.2978C26.5337 89.4535 26.3037 89.5314 26.0736 89.6093C25.8756 89.6733 25.6676 89.6997 25.4601 89.6871C25.2301 89.6871 25.0767 89.6871 24.9233 89.6093C24.7699 89.6093 24.6166 89.5314 24.4632 89.4535C24.3098 89.4535 24.2331 89.2978 24.0798 89.22C24.0031 89.1421 23.8497 89.0643 23.773 88.9086C23.6963 88.7529 23.6196 88.675 23.5429 88.5193V87.6629C23.6196 87.5072 23.6963 87.4294 23.773 87.2737L24.0798 86.9622C24.2331 86.8844 24.3098 86.8065 24.4632 86.7287C24.6166 86.6508 24.7699 86.573 24.9233 86.573C25.0682 86.5095 25.2261 86.4828 25.3834 86.4951C25.6135 86.4951 25.7669 86.4951 25.9202 86.573C26.1503 86.6508 26.3037 86.6508 26.4571 86.7287C26.5337 86.8065 26.6104 86.8844 26.6871 86.8844L26.9172 87.1179C26.9375 87.1179 26.957 87.1261 26.9714 87.1407C26.9858 87.1553 26.9939 87.1752 26.9939 87.1958L27.1472 87.3515L27.3006 87.6629H26.9172ZM33.2822 87.6629H32.8221L32.7454 87.5851L32.6687 87.5072C32.6484 87.5072 32.6289 87.499 32.6145 87.4844C32.6001 87.4698 32.592 87.45 32.592 87.4294C32.5153 87.4294 32.4387 87.3515 32.362 87.3515C32.3206 87.3092 32.2667 87.2818 32.2086 87.2737H32.0552C32.025 87.2441 31.9887 87.2217 31.9489 87.2083C31.9091 87.1948 31.8668 87.1905 31.8252 87.1958C31.7485 87.1958 31.5951 87.2737 31.5184 87.2737C31.4417 87.2737 31.2883 87.2737 31.2117 87.3515C31.135 87.4294 31.0583 87.4294 30.9816 87.5072L30.8282 87.6629C30.7515 87.7408 30.7515 87.8186 30.6748 87.8965V88.2857C30.7515 88.3636 30.7515 88.4415 30.8282 88.5193C30.9049 88.5972 30.9049 88.675 30.9816 88.675C31.0583 88.7529 31.135 88.8307 31.2117 88.8307C31.3048 88.885 31.411 88.912 31.5184 88.9086C31.5951 88.9864 31.7485 88.9864 31.8252 88.9864H32.1319C32.1621 88.9569 32.1984 88.9345 32.2383 88.9211C32.2781 88.9076 32.3203 88.9033 32.362 88.9086C32.4387 88.8307 32.4387 88.8307 32.5153 88.8307L32.592 88.7529C32.6124 88.7529 32.6319 88.7447 32.6463 88.7301C32.6606 88.7155 32.6687 88.6957 32.6687 88.675C32.7454 88.675 32.7454 88.5972 32.8221 88.5972L32.8988 88.5193H33.7423L33.5123 88.8307C33.4356 88.9086 33.4356 88.9864 33.3589 88.9864C33.3589 89.0643 33.3589 89.0643 33.2822 89.1421C33.2055 89.1421 33.2055 89.22 33.0521 89.2978C32.8988 89.4535 32.6687 89.5314 32.5153 89.6093C32.291 89.6735 32.0579 89.6998 31.8252 89.6871C31.6678 89.6994 31.5099 89.6727 31.365 89.6093C31.1976 89.6198 31.0326 89.564 30.9049 89.4535C30.7515 89.4535 30.5982 89.2978 30.4448 89.22L30.138 88.9086C30.0614 88.7529 29.9847 88.675 29.9847 88.5193C29.9291 88.3976 29.9028 88.2641 29.908 88.13C29.8958 87.9703 29.9221 87.81 29.9847 87.6629C29.9847 87.5072 30.0614 87.4294 30.138 87.2737C30.2914 87.1958 30.3681 87.0401 30.4448 86.9622L30.9049 86.7287C31.0099 86.6313 31.1462 86.5759 31.2883 86.573C31.4611 86.5141 31.643 86.4877 31.8252 86.4951C31.9785 86.4951 32.2086 86.4951 32.362 86.573C32.5153 86.6508 32.6687 86.6508 32.8221 86.7287C32.9755 86.8065 33.0521 86.8844 33.1288 86.8844C33.2055 86.9622 33.2822 87.0401 33.2822 87.1179C33.3589 87.1179 33.3589 87.1958 33.4356 87.1958C33.4356 87.2737 33.5123 87.2737 33.5123 87.3515L33.6656 87.6629H33.2822ZM38.6503 86.4951C38.8076 86.4828 38.9655 86.5095 39.1104 86.573C39.2638 86.573 39.4939 86.6508 39.5706 86.7287L40.0307 86.9622C40.1074 87.0401 40.2607 87.1179 40.3374 87.2737C40.4141 87.4294 40.4908 87.5072 40.5675 87.6629C40.5675 87.8186 40.6442 87.9743 40.6442 88.13C40.6442 88.2079 40.5675 88.3636 40.5675 88.5193C40.5083 88.6589 40.4309 88.7898 40.3374 88.9086C40.2607 89.0643 40.1074 89.1421 40.0307 89.22C39.8773 89.2978 39.8006 89.4535 39.6472 89.4535C39.4939 89.5314 39.3405 89.6093 39.1871 89.6093C39.0337 89.6871 38.8037 89.6871 38.6503 89.6871C38.493 89.6994 38.3351 89.6727 38.1902 89.6093C38.0368 89.6093 37.8834 89.5314 37.7301 89.4535C37.651 89.455 37.5731 89.4339 37.5053 89.3926C37.4376 89.3513 37.3826 89.2915 37.3466 89.22C37.2096 89.1587 37.1002 89.0476 37.0399 88.9086C36.9694 88.8721 36.9105 88.8163 36.8699 88.7474C36.8292 88.6786 36.8084 88.5996 36.8098 88.5193C36.7478 88.3998 36.7212 88.2646 36.7331 88.13C36.721 87.9703 36.7473 87.81 36.8098 87.6629C36.8098 87.5851 36.8865 87.4294 36.9632 87.2737C37.1166 87.1958 37.1933 87.0401 37.3466 86.9622C37.4636 86.8674 37.5926 86.7888 37.7301 86.7287C37.8834 86.6508 37.9601 86.573 38.1902 86.573C38.3351 86.5095 38.493 86.4828 38.6503 86.4951ZM38.6503 87.1958C38.5736 87.1958 38.4202 87.2737 38.3436 87.2737C38.2362 87.2702 38.13 87.2972 38.0368 87.3515C37.9601 87.4294 37.8834 87.4294 37.8068 87.5072L37.6534 87.6629C37.5767 87.7408 37.5767 87.8186 37.5 87.8965V88.2857C37.5767 88.3636 37.5767 88.4415 37.6534 88.5193C37.7301 88.5972 37.7301 88.675 37.8068 88.675C37.8834 88.7529 37.9601 88.8307 38.0368 88.8307C38.13 88.885 38.2362 88.912 38.3436 88.9086C38.4202 88.9864 38.5736 88.9864 38.6503 88.9864H38.8804C38.9571 88.9864 39.0337 88.9086 39.1104 88.9086C39.1871 88.9086 39.2638 88.8307 39.3405 88.8307C39.4172 88.7529 39.4939 88.7529 39.4939 88.675C39.552 88.6668 39.6059 88.6395 39.6472 88.5972C39.691 88.5567 39.7183 88.5012 39.7239 88.4415C39.7677 88.401 39.795 88.3455 39.8006 88.2857V87.8965C39.8006 87.8186 39.7239 87.7408 39.7239 87.6629C39.6472 87.5851 39.5706 87.5851 39.4939 87.5072C39.4172 87.4294 39.3405 87.4294 39.2638 87.3515C39.1871 87.2737 39.1104 87.2737 38.9571 87.2737C38.8804 87.1958 38.8037 87.1958 38.6503 87.1958ZM46.7025 89.6093H44.4785V86.573H45.2454V88.9086H46.4724V86.573H47.2393V88.9864H47.4693V90.1542H46.7025V89.6093ZM54.5245 89.6093H53.9877V87.8186L52.454 89.6093H51.8405V86.573H52.6074V88.3636L54.0644 86.573H54.7546V89.6093H54.5245ZM58.589 89.2978L60.046 86.573H60.6595L62.2699 89.6093H61.4264L60.9663 88.7529H59.7393L59.2791 89.6093H58.3589L58.589 89.2978ZM60.3528 87.5851L60.1227 88.0522H60.5828L60.3528 87.5851ZM68.2515 89.6093H66.0276V86.573H66.7945V88.9086H68.0215V86.573H68.7883V88.9864H69.0184V90.1542H68.2515V89.6093ZM75.9202 89.6093H75.3834V87.8186L73.9264 89.6093H73.2362V86.573H74.0031V88.3636L75.5368 86.573H76.1503V89.6093H75.9202ZM82.6687 86.8065V89.6093H81.9018V88.4415L80.5982 89.6093H79.5245L80.8282 88.4415C80.7869 88.3991 80.733 88.3718 80.6749 88.3636C80.5982 88.3636 80.5215 88.2857 80.4448 88.2079C80.405 88.2052 80.3675 88.1879 80.3393 88.1592C80.3111 88.1306 80.2941 88.0926 80.2914 88.0522C80.2147 87.9743 80.2147 87.8965 80.138 87.8186V87.2737C80.138 87.1958 80.2147 87.1179 80.2147 87.0401C80.2914 86.9622 80.3681 86.9622 80.3681 86.8844C80.4448 86.8065 80.5215 86.8065 80.5982 86.7287C80.6395 86.6864 80.6934 86.659 80.7515 86.6508C80.8282 86.6508 80.9049 86.573 80.9816 86.573H82.6687V86.8065ZM81.9018 87.8186V87.2737H81.135C81.0768 87.2818 81.0229 87.3092 80.9816 87.3515C80.9049 87.4294 80.9049 87.4294 80.9049 87.5072V87.5851L80.9816 87.6629C81.0583 87.7408 81.0583 87.7408 81.135 87.7408C81.135 87.8186 81.2117 87.8186 81.2883 87.8186H81.9018Z" fill="url(#paint2_linear_302_2358)"/>
<path fill-rule="evenodd" clip-rule="evenodd" d="M29.9842 44.9993L17.9443 55.9766L49.6161 0.0778809L52.837 6.46186L29.9842 44.9993Z" fill="url(#paint3_linear_302_2358)"/>
<path fill-rule="evenodd" clip-rule="evenodd" d="M52.9138 5.83899L29.9844 44.9992L59.6623 17.9063L52.9138 5.83899Z" fill="#102570"/>
<path fill-rule="evenodd" clip-rule="evenodd" d="M49.6162 0.0778809C52.9904 5.99474 56.3647 11.9116 59.6622 17.9063C60.7358 19.6969 60.8125 23.356 59.2021 25.2245C58.742 25.7695 58.2819 26.4702 57.5917 27.093L51.9168 32.2313C53.6039 29.74 55.1377 27.3266 55.9046 24.8352C56.7327 22.167 56.949 19.3418 56.537 16.5757C56.1249 13.8096 55.0955 11.1757 53.5273 8.87531C48.926 1.94636 51.15 2.80275 49.6162 0.0778809Z" fill="url(#paint4_radial_302_2358)"/>
<path fill-rule="evenodd" clip-rule="evenodd" d="M47.623 44.8435C64.5709 40.5616 77.9911 51.3832 81.9789 56.288C69.4022 35.3454 57.5157 37.6032 47.623 44.8435Z" fill="#102570"/>
<path fill-rule="evenodd" clip-rule="evenodd" d="M47.623 44.8435C65.8746 30.5963 77.9911 51.3832 81.9789 56.2879C70.2457 34.3333 64.9543 27.7158 47.623 44.8435Z" fill="url(#paint5_linear_302_2358)"/>
<path fill-rule="evenodd" clip-rule="evenodd" d="M49.5403 0C48.5434 1.63492 47.3931 4.20408 46.3194 5.839C49.1569 8.0189 53.7581 24.8352 43.252 40.7952C60.8133 23.901 61.5802 24.1345 49.5403 0Z" fill="url(#paint6_radial_302_2358)"/>
</g>
<defs>
<linearGradient id="paint0_linear_302_2358" x1="81.1115" y1="48.5407" x2="50.0114" y2="36.8378" gradientUnits="userSpaceOnUse">
<stop stop-color="#113165"/>
<stop offset="0.36" stop-color="#113165"/>
<stop offset="0.69" stop-color="#0197C6"/>
<stop offset="1" stop-color="#009AC9"/>
</linearGradient>
<linearGradient id="paint1_linear_302_2358" x1="49.6348" y1="79.1488" x2="48.6541" y2="65.648" gradientUnits="userSpaceOnUse">
<stop stop-color="#102570"/>
<stop offset="1" stop-color="#0C3E96"/>
</linearGradient>
<linearGradient id="paint2_linear_302_2358" x1="50.6518" y1="103.84" x2="49.2057" y2="85.6624" gradientUnits="userSpaceOnUse">
<stop stop-color="#102570"/>
<stop offset="1" stop-color="#0C3E96"/>
</linearGradient>
<linearGradient id="paint3_linear_302_2358" x1="49.6307" y1="7.14697" x2="21.8521" y2="49.3461" gradientUnits="userSpaceOnUse">
<stop stop-color="#102570"/>
<stop offset="0.27" stop-color="#102570"/>
<stop offset="1" stop-color="#0091FF"/>
</linearGradient>
<radialGradient id="paint4_radial_302_2358" cx="0" cy="0" r="1" gradientUnits="userSpaceOnUse" gradientTransform="translate(55.6883 18.0745) scale(14.263 14.4799)">
<stop stop-color="#009AC9"/>
<stop offset="0.31" stop-color="#0197C6"/>
<stop offset="0.64" stop-color="#113165"/>
<stop offset="1" stop-color="#113165"/>
</radialGradient>
<linearGradient id="paint5_linear_302_2358" x1="81.8961" y1="44.4075" x2="47.9707" y2="48.9317" gradientUnits="userSpaceOnUse">
<stop stop-color="#0B2A73"/>
<stop offset="0.4" stop-color="#0C457F"/>
<stop offset="1" stop-color="#00C4FF"/>
</linearGradient>
<radialGradient id="paint6_radial_302_2358" cx="0" cy="0" r="1" gradientUnits="userSpaceOnUse" gradientTransform="translate(46.6509 23.7092) rotate(144.954) scale(8.62995 17.2613)">
<stop stop-color="#00C4FF"/>
<stop offset="0.33" stop-color="#00A6FF"/>
<stop offset="0.78" stop-color="#0874B7"/>
<stop offset="1" stop-color="#102570"/>
</radialGradient>
<clipPath id="clip0_302_2358">
<rect width="100" height="103" fill="white"/>
</clipPath>
</defs>
</svg>
